M48
INCH,TZ
T1C0.0157
T2C0.0197
T3C0.0236
T4C0.0315
T5C0.0394
%
G90
G05
T1
X23982Y-16765
X27757Y-15090
X34482Y-16265
X36982Y-14465
T2
X25382Y-17315
X25874Y-17315
X26366Y-17315
X26858Y-17315
X27350Y-17315
X27843Y-17315
T3
X24382Y-12927
X24382Y-13715
T4
X34882Y-11265
X34882Y-12265
X34882Y-13265
X34882Y-14265
X37882Y-11265
X37882Y-12265
X37882Y-13265
X37882Y-14265
X29632Y-11265
X29632Y-12265
X29632Y-13265
X29632Y-14265
X29632Y-15265
X29632Y-16265
X29632Y-17265
X32632Y-11265
X32632Y-12265
X32632Y-13265
X32632Y-14265
X32632Y-15265
X32632Y-16265
X32632Y-17265
T5
X21482Y-13865
X21482Y-14865
X21482Y-15865
X21482Y-16865
X26632Y-11265
X26632Y-12265
X26632Y-13265
X27632Y-11265
X27632Y-12265
X27632Y-13265
X40482Y-11265
X40482Y-12265
X40482Y-13265
X40482Y-14265
X40482Y-15265
X40482Y-16265
X40482Y-17265
T0
M30
