G04 #@! TF.GenerationSoftware,KiCad,Pcbnew,5.0.2-bee76a0~70~ubuntu18.04.1*
G04 #@! TF.CreationDate,2019-03-01T14:38:36+01:00*
G04 #@! TF.ProjectId,skewboards,736b6577-626f-4617-9264-732e6b696361,rev?*
G04 #@! TF.SameCoordinates,Original*
G04 #@! TF.FileFunction,Soldermask,Bot*
G04 #@! TF.FilePolarity,Negative*
%FSLAX46Y46*%
G04 Gerber Fmt 4.6, Leading zero omitted, Abs format (unit mm)*
G04 Created by KiCad (PCBNEW 5.0.2-bee76a0~70~ubuntu18.04.1) date ven. 01 mars 2019 14:38:36 CET*
%MOMM*%
%LPD*%
G01*
G04 APERTURE LIST*
%ADD10C,0.120000*%
%ADD11C,0.100000*%
G04 APERTURE END LIST*
D10*
X100487000Y-44211428D02*
X100487000Y-43897142D01*
X100515571Y-43840000D01*
X100572714Y-43811428D01*
X100687000Y-43811428D01*
X100744142Y-43840000D01*
X100487000Y-44182857D02*
X100544142Y-44211428D01*
X100687000Y-44211428D01*
X100744142Y-44182857D01*
X100772714Y-44125714D01*
X100772714Y-44068571D01*
X100744142Y-44011428D01*
X100687000Y-43982857D01*
X100544142Y-43982857D01*
X100487000Y-43954285D01*
X100201285Y-43811428D02*
X100201285Y-44211428D01*
X100201285Y-43868571D02*
X100172714Y-43840000D01*
X100115571Y-43811428D01*
X100029857Y-43811428D01*
X99972714Y-43840000D01*
X99944142Y-43897142D01*
X99944142Y-44211428D01*
X99744142Y-43811428D02*
X99515571Y-43811428D01*
X99658428Y-43611428D02*
X99658428Y-44125714D01*
X99629857Y-44182857D01*
X99572714Y-44211428D01*
X99515571Y-44211428D01*
X99229857Y-44211428D02*
X99287000Y-44182857D01*
X99315571Y-44154285D01*
X99344142Y-44097142D01*
X99344142Y-43925714D01*
X99315571Y-43868571D01*
X99287000Y-43840000D01*
X99229857Y-43811428D01*
X99144142Y-43811428D01*
X99087000Y-43840000D01*
X99058428Y-43868571D01*
X99029857Y-43925714D01*
X99029857Y-44097142D01*
X99058428Y-44154285D01*
X99087000Y-44182857D01*
X99144142Y-44211428D01*
X99229857Y-44211428D01*
X98772714Y-44211428D02*
X98772714Y-43811428D01*
X98772714Y-43611428D02*
X98801285Y-43640000D01*
X98772714Y-43668571D01*
X98744142Y-43640000D01*
X98772714Y-43611428D01*
X98772714Y-43668571D01*
X98487000Y-43811428D02*
X98487000Y-44211428D01*
X98487000Y-43868571D02*
X98458428Y-43840000D01*
X98401285Y-43811428D01*
X98315571Y-43811428D01*
X98258428Y-43840000D01*
X98229857Y-43897142D01*
X98229857Y-44211428D01*
X97715571Y-44182857D02*
X97772714Y-44211428D01*
X97887000Y-44211428D01*
X97944142Y-44182857D01*
X97972714Y-44125714D01*
X97972714Y-43897142D01*
X97944142Y-43840000D01*
X97887000Y-43811428D01*
X97772714Y-43811428D01*
X97715571Y-43840000D01*
X97687000Y-43897142D01*
X97687000Y-43954285D01*
X97972714Y-44011428D01*
X97429857Y-44154285D02*
X97401285Y-44182857D01*
X97429857Y-44211428D01*
X97458428Y-44182857D01*
X97429857Y-44154285D01*
X97429857Y-44211428D01*
X97144142Y-43811428D02*
X97144142Y-44411428D01*
X97144142Y-43840000D02*
X97087000Y-43811428D01*
X96972714Y-43811428D01*
X96915571Y-43840000D01*
X96887000Y-43868571D01*
X96858428Y-43925714D01*
X96858428Y-44097142D01*
X96887000Y-44154285D01*
X96915571Y-44182857D01*
X96972714Y-44211428D01*
X97087000Y-44211428D01*
X97144142Y-44182857D01*
X96601285Y-44211428D02*
X96601285Y-43811428D01*
X96601285Y-43611428D02*
X96629857Y-43640000D01*
X96601285Y-43668571D01*
X96572714Y-43640000D01*
X96601285Y-43611428D01*
X96601285Y-43668571D01*
X96315571Y-43811428D02*
X96315571Y-44211428D01*
X96315571Y-43868571D02*
X96287000Y-43840000D01*
X96229857Y-43811428D01*
X96144142Y-43811428D01*
X96087000Y-43840000D01*
X96058428Y-43897142D01*
X96058428Y-44211428D01*
X95858428Y-43811428D02*
X95629857Y-43811428D01*
X95772714Y-43611428D02*
X95772714Y-44125714D01*
X95744142Y-44182857D01*
X95687000Y-44211428D01*
X95629857Y-44211428D01*
X95344142Y-44211428D02*
X95401285Y-44182857D01*
X95429857Y-44154285D01*
X95458428Y-44097142D01*
X95458428Y-43925714D01*
X95429857Y-43868571D01*
X95401285Y-43840000D01*
X95344142Y-43811428D01*
X95258428Y-43811428D01*
X95201285Y-43840000D01*
X95172714Y-43868571D01*
X95144142Y-43925714D01*
X95144142Y-44097142D01*
X95172714Y-44154285D01*
X95201285Y-44182857D01*
X95258428Y-44211428D01*
X95344142Y-44211428D01*
X94629857Y-43811428D02*
X94629857Y-44211428D01*
X94887000Y-43811428D02*
X94887000Y-44125714D01*
X94858428Y-44182857D01*
X94801285Y-44211428D01*
X94715571Y-44211428D01*
X94658428Y-44182857D01*
X94629857Y-44154285D01*
X94429857Y-43811428D02*
X94201285Y-43811428D01*
X94344142Y-43611428D02*
X94344142Y-44125714D01*
X94315571Y-44182857D01*
X94258428Y-44211428D01*
X94201285Y-44211428D01*
X94001285Y-44154285D02*
X93972714Y-44182857D01*
X94001285Y-44211428D01*
X94029857Y-44182857D01*
X94001285Y-44154285D01*
X94001285Y-44211428D01*
X93458428Y-44182857D02*
X93515571Y-44211428D01*
X93629857Y-44211428D01*
X93687000Y-44182857D01*
X93715571Y-44154285D01*
X93744142Y-44097142D01*
X93744142Y-43925714D01*
X93715571Y-43868571D01*
X93687000Y-43840000D01*
X93629857Y-43811428D01*
X93515571Y-43811428D01*
X93458428Y-43840000D01*
X93115571Y-44211428D02*
X93172714Y-44182857D01*
X93201285Y-44154285D01*
X93229857Y-44097142D01*
X93229857Y-43925714D01*
X93201285Y-43868571D01*
X93172714Y-43840000D01*
X93115571Y-43811428D01*
X93029857Y-43811428D01*
X92972714Y-43840000D01*
X92944142Y-43868571D01*
X92915571Y-43925714D01*
X92915571Y-44097142D01*
X92944142Y-44154285D01*
X92972714Y-44182857D01*
X93029857Y-44211428D01*
X93115571Y-44211428D01*
X92658428Y-44211428D02*
X92658428Y-43811428D01*
X92658428Y-43868571D02*
X92629857Y-43840000D01*
X92572714Y-43811428D01*
X92487000Y-43811428D01*
X92429857Y-43840000D01*
X92401285Y-43897142D01*
X92401285Y-44211428D01*
X92401285Y-43897142D02*
X92372714Y-43840000D01*
X92315571Y-43811428D01*
X92229857Y-43811428D01*
X92172714Y-43840000D01*
X92144142Y-43897142D01*
X92144142Y-44211428D01*
X100629857Y-44631428D02*
X100572714Y-44631428D01*
X100515571Y-44660000D01*
X100487000Y-44688571D01*
X100458428Y-44745714D01*
X100429857Y-44860000D01*
X100429857Y-45002857D01*
X100458428Y-45117142D01*
X100487000Y-45174285D01*
X100515571Y-45202857D01*
X100572714Y-45231428D01*
X100629857Y-45231428D01*
X100687000Y-45202857D01*
X100715571Y-45174285D01*
X100744142Y-45117142D01*
X100772714Y-45002857D01*
X100772714Y-44860000D01*
X100744142Y-44745714D01*
X100715571Y-44688571D01*
X100687000Y-44660000D01*
X100629857Y-44631428D01*
X100201285Y-44688571D02*
X100172714Y-44660000D01*
X100115571Y-44631428D01*
X99972714Y-44631428D01*
X99915571Y-44660000D01*
X99887000Y-44688571D01*
X99858428Y-44745714D01*
X99858428Y-44802857D01*
X99887000Y-44888571D01*
X100229857Y-45231428D01*
X99858428Y-45231428D01*
X99172714Y-44602857D02*
X99687000Y-45374285D01*
X98658428Y-45231428D02*
X99001285Y-45231428D01*
X98829857Y-45231428D02*
X98829857Y-44631428D01*
X98887000Y-44717142D01*
X98944142Y-44774285D01*
X99001285Y-44802857D01*
X98372714Y-45231428D02*
X98258428Y-45231428D01*
X98201285Y-45202857D01*
X98172714Y-45174285D01*
X98115571Y-45088571D01*
X98087000Y-44974285D01*
X98087000Y-44745714D01*
X98115571Y-44688571D01*
X98144142Y-44660000D01*
X98201285Y-44631428D01*
X98315571Y-44631428D01*
X98372714Y-44660000D01*
X98401285Y-44688571D01*
X98429857Y-44745714D01*
X98429857Y-44888571D01*
X98401285Y-44945714D01*
X98372714Y-44974285D01*
X98315571Y-45002857D01*
X98201285Y-45002857D01*
X98144142Y-44974285D01*
X98115571Y-44945714D01*
X98087000Y-44888571D01*
X97429857Y-45031428D02*
X96915571Y-45031428D01*
X96229857Y-45231428D02*
X96229857Y-44831428D01*
X96229857Y-44945714D02*
X96201285Y-44888571D01*
X96172714Y-44860000D01*
X96115571Y-44831428D01*
X96058428Y-44831428D01*
X95629857Y-45202857D02*
X95687000Y-45231428D01*
X95801285Y-45231428D01*
X95858428Y-45202857D01*
X95887000Y-45145714D01*
X95887000Y-44917142D01*
X95858428Y-44860000D01*
X95801285Y-44831428D01*
X95687000Y-44831428D01*
X95629857Y-44860000D01*
X95601285Y-44917142D01*
X95601285Y-44974285D01*
X95887000Y-45031428D01*
X95401285Y-44831428D02*
X95258428Y-45231428D01*
X95115571Y-44831428D01*
X94172714Y-44831428D02*
X94172714Y-45231428D01*
X94315571Y-44602857D02*
X94458428Y-45031428D01*
X94087000Y-45031428D01*
D11*
G36*
X102952707Y-42809597D02*
X103029836Y-42817193D01*
X103161787Y-42857220D01*
X103227763Y-42877233D01*
X103410172Y-42974733D01*
X103570054Y-43105946D01*
X103701267Y-43265828D01*
X103798767Y-43448237D01*
X103812507Y-43493533D01*
X103858807Y-43646164D01*
X103879080Y-43852000D01*
X103858807Y-44057836D01*
X103827421Y-44161303D01*
X103798767Y-44255763D01*
X103701267Y-44438172D01*
X103570054Y-44598054D01*
X103410172Y-44729267D01*
X103227763Y-44826767D01*
X103192281Y-44837530D01*
X103029836Y-44886807D01*
X102952707Y-44894403D01*
X102875580Y-44902000D01*
X102772420Y-44902000D01*
X102695293Y-44894403D01*
X102618164Y-44886807D01*
X102455719Y-44837530D01*
X102420237Y-44826767D01*
X102237828Y-44729267D01*
X102077946Y-44598054D01*
X101946733Y-44438172D01*
X101849233Y-44255763D01*
X101820579Y-44161303D01*
X101789193Y-44057836D01*
X101768920Y-43852000D01*
X101789193Y-43646164D01*
X101835493Y-43493533D01*
X101849233Y-43448237D01*
X101946733Y-43265828D01*
X102077946Y-43105946D01*
X102237828Y-42974733D01*
X102420237Y-42877233D01*
X102486213Y-42857220D01*
X102618164Y-42817193D01*
X102695293Y-42809597D01*
X102772420Y-42802000D01*
X102875580Y-42802000D01*
X102952707Y-42809597D01*
X102952707Y-42809597D01*
G37*
G36*
X83081030Y-42866469D02*
X83081033Y-42866470D01*
X83081034Y-42866470D01*
X83269535Y-42923651D01*
X83269537Y-42923652D01*
X83443260Y-43016509D01*
X83595528Y-43141472D01*
X83720491Y-43293740D01*
X83813348Y-43467463D01*
X83813349Y-43467465D01*
X83869571Y-43652804D01*
X83870531Y-43655970D01*
X83889838Y-43852000D01*
X83870531Y-44048030D01*
X83870530Y-44048033D01*
X83870530Y-44048034D01*
X83867557Y-44057836D01*
X83813348Y-44236537D01*
X83720491Y-44410260D01*
X83595528Y-44562528D01*
X83443260Y-44687491D01*
X83443258Y-44687492D01*
X83269535Y-44780349D01*
X83081034Y-44837530D01*
X83081033Y-44837530D01*
X83081030Y-44837531D01*
X82934124Y-44852000D01*
X82835876Y-44852000D01*
X82688970Y-44837531D01*
X82688967Y-44837530D01*
X82688966Y-44837530D01*
X82500465Y-44780349D01*
X82326742Y-44687492D01*
X82326740Y-44687491D01*
X82174472Y-44562528D01*
X82049509Y-44410260D01*
X81956652Y-44236537D01*
X81902444Y-44057836D01*
X81899470Y-44048034D01*
X81899470Y-44048033D01*
X81899469Y-44048030D01*
X81880162Y-43852000D01*
X81899469Y-43655970D01*
X81900429Y-43652804D01*
X81956651Y-43467465D01*
X81956652Y-43467463D01*
X82049509Y-43293740D01*
X82174472Y-43141472D01*
X82326740Y-43016509D01*
X82500463Y-42923652D01*
X82500465Y-42923651D01*
X82688966Y-42866470D01*
X82688967Y-42866470D01*
X82688970Y-42866469D01*
X82835876Y-42852000D01*
X82934124Y-42852000D01*
X83081030Y-42866469D01*
X83081030Y-42866469D01*
G37*
G36*
X75461030Y-42866469D02*
X75461033Y-42866470D01*
X75461034Y-42866470D01*
X75649535Y-42923651D01*
X75649537Y-42923652D01*
X75823260Y-43016509D01*
X75975528Y-43141472D01*
X76100491Y-43293740D01*
X76193348Y-43467463D01*
X76193349Y-43467465D01*
X76249571Y-43652804D01*
X76250531Y-43655970D01*
X76269838Y-43852000D01*
X76250531Y-44048030D01*
X76250530Y-44048033D01*
X76250530Y-44048034D01*
X76247557Y-44057836D01*
X76193348Y-44236537D01*
X76100491Y-44410260D01*
X75975528Y-44562528D01*
X75823260Y-44687491D01*
X75823258Y-44687492D01*
X75649535Y-44780349D01*
X75461034Y-44837530D01*
X75461033Y-44837530D01*
X75461030Y-44837531D01*
X75314124Y-44852000D01*
X75215876Y-44852000D01*
X75068970Y-44837531D01*
X75068967Y-44837530D01*
X75068966Y-44837530D01*
X74880465Y-44780349D01*
X74706742Y-44687492D01*
X74706740Y-44687491D01*
X74554472Y-44562528D01*
X74429509Y-44410260D01*
X74336652Y-44236537D01*
X74282444Y-44057836D01*
X74279470Y-44048034D01*
X74279470Y-44048033D01*
X74279469Y-44048030D01*
X74260162Y-43852000D01*
X74279469Y-43655970D01*
X74280429Y-43652804D01*
X74336651Y-43467465D01*
X74336652Y-43467463D01*
X74429509Y-43293740D01*
X74554472Y-43141472D01*
X74706740Y-43016509D01*
X74880463Y-42923652D01*
X74880465Y-42923651D01*
X75068966Y-42866470D01*
X75068967Y-42866470D01*
X75068970Y-42866469D01*
X75215876Y-42852000D01*
X75314124Y-42852000D01*
X75461030Y-42866469D01*
X75461030Y-42866469D01*
G37*
G36*
X65095000Y-43418340D02*
X65097402Y-43442726D01*
X65104515Y-43466175D01*
X65116066Y-43487786D01*
X65131612Y-43506728D01*
X65150554Y-43522274D01*
X65172165Y-43533825D01*
X65195614Y-43540938D01*
X65220000Y-43543340D01*
X65244386Y-43540938D01*
X65267835Y-43533825D01*
X65289446Y-43522274D01*
X65308388Y-43506728D01*
X65321583Y-43493533D01*
X65330184Y-43487786D01*
X65423952Y-43425132D01*
X65537694Y-43378019D01*
X65537695Y-43378019D01*
X65537697Y-43378018D01*
X65658441Y-43354000D01*
X65781559Y-43354000D01*
X65902303Y-43378018D01*
X65902305Y-43378019D01*
X65902306Y-43378019D01*
X66016048Y-43425132D01*
X66109816Y-43487786D01*
X66118417Y-43493533D01*
X66205467Y-43580583D01*
X66241066Y-43633861D01*
X66256611Y-43652803D01*
X66275553Y-43668348D01*
X66297164Y-43679900D01*
X66320613Y-43687013D01*
X66345000Y-43689415D01*
X66369386Y-43687013D01*
X66392835Y-43679900D01*
X66414446Y-43668349D01*
X66433388Y-43652804D01*
X66448934Y-43633861D01*
X66484533Y-43580583D01*
X66571583Y-43493533D01*
X66580184Y-43487786D01*
X66673952Y-43425132D01*
X66787694Y-43378019D01*
X66787695Y-43378019D01*
X66787697Y-43378018D01*
X66908441Y-43354000D01*
X67031559Y-43354000D01*
X67152303Y-43378018D01*
X67152305Y-43378019D01*
X67152306Y-43378019D01*
X67266048Y-43425132D01*
X67359816Y-43487786D01*
X67368417Y-43493533D01*
X67455467Y-43580583D01*
X67491066Y-43633861D01*
X67506611Y-43652803D01*
X67525553Y-43668348D01*
X67547164Y-43679900D01*
X67570613Y-43687013D01*
X67595000Y-43689415D01*
X67619386Y-43687013D01*
X67642835Y-43679900D01*
X67664446Y-43668349D01*
X67683388Y-43652804D01*
X67698934Y-43633861D01*
X67734533Y-43580583D01*
X67821583Y-43493533D01*
X67830184Y-43487786D01*
X67923952Y-43425132D01*
X68037694Y-43378019D01*
X68037695Y-43378019D01*
X68037697Y-43378018D01*
X68158441Y-43354000D01*
X68281559Y-43354000D01*
X68402303Y-43378018D01*
X68402305Y-43378019D01*
X68402306Y-43378019D01*
X68516048Y-43425132D01*
X68609816Y-43487786D01*
X68618417Y-43493533D01*
X68705467Y-43580583D01*
X68741066Y-43633861D01*
X68756611Y-43652803D01*
X68775553Y-43668348D01*
X68797164Y-43679900D01*
X68820613Y-43687013D01*
X68845000Y-43689415D01*
X68869386Y-43687013D01*
X68892835Y-43679900D01*
X68914446Y-43668349D01*
X68933388Y-43652804D01*
X68948934Y-43633861D01*
X68984533Y-43580583D01*
X69071583Y-43493533D01*
X69080184Y-43487786D01*
X69173952Y-43425132D01*
X69287694Y-43378019D01*
X69287695Y-43378019D01*
X69287697Y-43378018D01*
X69408441Y-43354000D01*
X69531559Y-43354000D01*
X69652303Y-43378018D01*
X69652305Y-43378019D01*
X69652306Y-43378019D01*
X69766048Y-43425132D01*
X69859816Y-43487786D01*
X69868417Y-43493533D01*
X69955467Y-43580583D01*
X69991066Y-43633861D01*
X70006611Y-43652803D01*
X70025553Y-43668348D01*
X70047164Y-43679900D01*
X70070613Y-43687013D01*
X70095000Y-43689415D01*
X70119386Y-43687013D01*
X70142835Y-43679900D01*
X70164446Y-43668349D01*
X70183388Y-43652804D01*
X70198934Y-43633861D01*
X70234533Y-43580583D01*
X70321583Y-43493533D01*
X70330184Y-43487786D01*
X70423952Y-43425132D01*
X70537694Y-43378019D01*
X70537695Y-43378019D01*
X70537697Y-43378018D01*
X70658441Y-43354000D01*
X70781559Y-43354000D01*
X70902303Y-43378018D01*
X70902305Y-43378019D01*
X70902306Y-43378019D01*
X71016048Y-43425132D01*
X71109816Y-43487786D01*
X71118417Y-43493533D01*
X71205467Y-43580583D01*
X71205469Y-43580586D01*
X71273868Y-43682952D01*
X71320981Y-43796694D01*
X71320982Y-43796697D01*
X71345000Y-43917441D01*
X71345000Y-44040559D01*
X71341564Y-44057834D01*
X71320981Y-44161306D01*
X71273868Y-44275048D01*
X71253723Y-44305197D01*
X71205467Y-44377417D01*
X71118417Y-44464467D01*
X71118414Y-44464469D01*
X71016048Y-44532868D01*
X70902306Y-44579981D01*
X70902305Y-44579981D01*
X70902303Y-44579982D01*
X70781559Y-44604000D01*
X70658441Y-44604000D01*
X70537697Y-44579982D01*
X70537695Y-44579981D01*
X70537694Y-44579981D01*
X70423952Y-44532868D01*
X70321586Y-44464469D01*
X70321583Y-44464467D01*
X70234533Y-44377417D01*
X70198934Y-44324139D01*
X70183389Y-44305197D01*
X70164447Y-44289652D01*
X70142836Y-44278100D01*
X70119387Y-44270987D01*
X70095000Y-44268585D01*
X70070614Y-44270987D01*
X70047165Y-44278100D01*
X70025554Y-44289651D01*
X70006612Y-44305196D01*
X69991066Y-44324139D01*
X69955467Y-44377417D01*
X69868417Y-44464467D01*
X69868414Y-44464469D01*
X69766048Y-44532868D01*
X69652306Y-44579981D01*
X69652305Y-44579981D01*
X69652303Y-44579982D01*
X69531559Y-44604000D01*
X69408441Y-44604000D01*
X69287697Y-44579982D01*
X69287695Y-44579981D01*
X69287694Y-44579981D01*
X69173952Y-44532868D01*
X69071586Y-44464469D01*
X69071583Y-44464467D01*
X68984533Y-44377417D01*
X68948934Y-44324139D01*
X68933389Y-44305197D01*
X68914447Y-44289652D01*
X68892836Y-44278100D01*
X68869387Y-44270987D01*
X68845000Y-44268585D01*
X68820614Y-44270987D01*
X68797165Y-44278100D01*
X68775554Y-44289651D01*
X68756612Y-44305196D01*
X68741066Y-44324139D01*
X68705467Y-44377417D01*
X68618417Y-44464467D01*
X68618414Y-44464469D01*
X68516048Y-44532868D01*
X68402306Y-44579981D01*
X68402305Y-44579981D01*
X68402303Y-44579982D01*
X68281559Y-44604000D01*
X68158441Y-44604000D01*
X68037697Y-44579982D01*
X68037695Y-44579981D01*
X68037694Y-44579981D01*
X67923952Y-44532868D01*
X67821586Y-44464469D01*
X67821583Y-44464467D01*
X67734533Y-44377417D01*
X67698934Y-44324139D01*
X67683389Y-44305197D01*
X67664447Y-44289652D01*
X67642836Y-44278100D01*
X67619387Y-44270987D01*
X67595000Y-44268585D01*
X67570614Y-44270987D01*
X67547165Y-44278100D01*
X67525554Y-44289651D01*
X67506612Y-44305196D01*
X67491066Y-44324139D01*
X67455467Y-44377417D01*
X67368417Y-44464467D01*
X67368414Y-44464469D01*
X67266048Y-44532868D01*
X67152306Y-44579981D01*
X67152305Y-44579981D01*
X67152303Y-44579982D01*
X67031559Y-44604000D01*
X66908441Y-44604000D01*
X66787697Y-44579982D01*
X66787695Y-44579981D01*
X66787694Y-44579981D01*
X66673952Y-44532868D01*
X66571586Y-44464469D01*
X66571583Y-44464467D01*
X66484533Y-44377417D01*
X66448934Y-44324139D01*
X66433389Y-44305197D01*
X66414447Y-44289652D01*
X66392836Y-44278100D01*
X66369387Y-44270987D01*
X66345000Y-44268585D01*
X66320614Y-44270987D01*
X66297165Y-44278100D01*
X66275554Y-44289651D01*
X66256612Y-44305196D01*
X66241066Y-44324139D01*
X66205467Y-44377417D01*
X66118417Y-44464467D01*
X66118414Y-44464469D01*
X66016048Y-44532868D01*
X65902306Y-44579981D01*
X65902305Y-44579981D01*
X65902303Y-44579982D01*
X65781559Y-44604000D01*
X65658441Y-44604000D01*
X65537697Y-44579982D01*
X65537695Y-44579981D01*
X65537694Y-44579981D01*
X65423952Y-44532868D01*
X65321586Y-44464469D01*
X65321583Y-44464467D01*
X65308388Y-44451272D01*
X65289446Y-44435726D01*
X65267835Y-44424175D01*
X65244386Y-44417062D01*
X65220000Y-44414660D01*
X65195614Y-44417062D01*
X65172165Y-44424175D01*
X65150554Y-44435726D01*
X65131612Y-44451272D01*
X65116066Y-44470214D01*
X65104515Y-44491825D01*
X65097402Y-44515274D01*
X65095000Y-44539660D01*
X65095000Y-44604000D01*
X63845000Y-44604000D01*
X63845000Y-43354000D01*
X65095000Y-43354000D01*
X65095000Y-43418340D01*
X65095000Y-43418340D01*
G37*
G36*
X55614000Y-43886000D02*
X53514000Y-43886000D01*
X53514000Y-41786000D01*
X55614000Y-41786000D01*
X55614000Y-43886000D01*
X55614000Y-43886000D01*
G37*
G36*
X102952707Y-40269597D02*
X103029836Y-40277193D01*
X103161787Y-40317220D01*
X103227763Y-40337233D01*
X103410172Y-40434733D01*
X103570054Y-40565946D01*
X103701267Y-40725828D01*
X103798767Y-40908237D01*
X103818780Y-40974213D01*
X103858807Y-41106164D01*
X103879080Y-41312000D01*
X103858807Y-41517836D01*
X103818780Y-41649787D01*
X103798767Y-41715763D01*
X103701267Y-41898172D01*
X103570054Y-42058054D01*
X103410172Y-42189267D01*
X103227763Y-42286767D01*
X103192281Y-42297530D01*
X103029836Y-42346807D01*
X102952707Y-42354403D01*
X102875580Y-42362000D01*
X102772420Y-42362000D01*
X102695293Y-42354403D01*
X102618164Y-42346807D01*
X102455719Y-42297530D01*
X102420237Y-42286767D01*
X102237828Y-42189267D01*
X102077946Y-42058054D01*
X101946733Y-41898172D01*
X101849233Y-41715763D01*
X101829220Y-41649787D01*
X101789193Y-41517836D01*
X101768920Y-41312000D01*
X101789193Y-41106164D01*
X101829220Y-40974213D01*
X101849233Y-40908237D01*
X101946733Y-40725828D01*
X102077946Y-40565946D01*
X102237828Y-40434733D01*
X102420237Y-40337233D01*
X102486213Y-40317220D01*
X102618164Y-40277193D01*
X102695293Y-40269597D01*
X102772420Y-40262000D01*
X102875580Y-40262000D01*
X102952707Y-40269597D01*
X102952707Y-40269597D01*
G37*
G36*
X83081030Y-40326469D02*
X83081033Y-40326470D01*
X83081034Y-40326470D01*
X83269535Y-40383651D01*
X83269537Y-40383652D01*
X83443260Y-40476509D01*
X83595528Y-40601472D01*
X83720491Y-40753740D01*
X83720492Y-40753742D01*
X83813349Y-40927465D01*
X83867557Y-41106166D01*
X83870531Y-41115970D01*
X83889838Y-41312000D01*
X83870531Y-41508030D01*
X83870530Y-41508033D01*
X83870530Y-41508034D01*
X83867557Y-41517836D01*
X83813348Y-41696537D01*
X83720491Y-41870260D01*
X83595528Y-42022528D01*
X83443260Y-42147491D01*
X83443258Y-42147492D01*
X83269535Y-42240349D01*
X83081034Y-42297530D01*
X83081033Y-42297530D01*
X83081030Y-42297531D01*
X82934124Y-42312000D01*
X82835876Y-42312000D01*
X82688970Y-42297531D01*
X82688967Y-42297530D01*
X82688966Y-42297530D01*
X82500465Y-42240349D01*
X82326742Y-42147492D01*
X82326740Y-42147491D01*
X82174472Y-42022528D01*
X82049509Y-41870260D01*
X81956652Y-41696537D01*
X81902444Y-41517836D01*
X81899470Y-41508034D01*
X81899470Y-41508033D01*
X81899469Y-41508030D01*
X81880162Y-41312000D01*
X81899469Y-41115970D01*
X81902443Y-41106166D01*
X81956651Y-40927465D01*
X82049508Y-40753742D01*
X82049509Y-40753740D01*
X82174472Y-40601472D01*
X82326740Y-40476509D01*
X82500463Y-40383652D01*
X82500465Y-40383651D01*
X82688966Y-40326470D01*
X82688967Y-40326470D01*
X82688970Y-40326469D01*
X82835876Y-40312000D01*
X82934124Y-40312000D01*
X83081030Y-40326469D01*
X83081030Y-40326469D01*
G37*
G36*
X75461030Y-40326469D02*
X75461033Y-40326470D01*
X75461034Y-40326470D01*
X75649535Y-40383651D01*
X75649537Y-40383652D01*
X75823260Y-40476509D01*
X75975528Y-40601472D01*
X76100491Y-40753740D01*
X76100492Y-40753742D01*
X76193349Y-40927465D01*
X76247557Y-41106166D01*
X76250531Y-41115970D01*
X76269838Y-41312000D01*
X76250531Y-41508030D01*
X76250530Y-41508033D01*
X76250530Y-41508034D01*
X76247557Y-41517836D01*
X76193348Y-41696537D01*
X76100491Y-41870260D01*
X75975528Y-42022528D01*
X75823260Y-42147491D01*
X75823258Y-42147492D01*
X75649535Y-42240349D01*
X75461034Y-42297530D01*
X75461033Y-42297530D01*
X75461030Y-42297531D01*
X75314124Y-42312000D01*
X75215876Y-42312000D01*
X75068970Y-42297531D01*
X75068967Y-42297530D01*
X75068966Y-42297530D01*
X74880465Y-42240349D01*
X74706742Y-42147492D01*
X74706740Y-42147491D01*
X74554472Y-42022528D01*
X74429509Y-41870260D01*
X74336652Y-41696537D01*
X74282444Y-41517836D01*
X74279470Y-41508034D01*
X74279470Y-41508033D01*
X74279469Y-41508030D01*
X74260162Y-41312000D01*
X74279469Y-41115970D01*
X74282443Y-41106166D01*
X74336651Y-40927465D01*
X74429508Y-40753742D01*
X74429509Y-40753740D01*
X74554472Y-40601472D01*
X74706740Y-40476509D01*
X74880463Y-40383652D01*
X74880465Y-40383651D01*
X75068966Y-40326470D01*
X75068967Y-40326470D01*
X75068970Y-40326469D01*
X75215876Y-40312000D01*
X75314124Y-40312000D01*
X75461030Y-40326469D01*
X75461030Y-40326469D01*
G37*
G36*
X54692707Y-39253596D02*
X54769836Y-39261193D01*
X54901787Y-39301220D01*
X54967763Y-39321233D01*
X55150172Y-39418733D01*
X55310054Y-39549946D01*
X55441267Y-39709828D01*
X55538767Y-39892237D01*
X55538767Y-39892238D01*
X55598807Y-40090164D01*
X55619080Y-40296000D01*
X55598807Y-40501836D01*
X55568583Y-40601472D01*
X55538767Y-40699763D01*
X55441267Y-40882172D01*
X55310054Y-41042054D01*
X55150172Y-41173267D01*
X54967763Y-41270767D01*
X54901787Y-41290780D01*
X54769836Y-41330807D01*
X54692707Y-41338404D01*
X54615580Y-41346000D01*
X54512420Y-41346000D01*
X54435293Y-41338404D01*
X54358164Y-41330807D01*
X54226213Y-41290780D01*
X54160237Y-41270767D01*
X53977828Y-41173267D01*
X53817946Y-41042054D01*
X53686733Y-40882172D01*
X53589233Y-40699763D01*
X53559417Y-40601472D01*
X53529193Y-40501836D01*
X53508920Y-40296000D01*
X53529193Y-40090164D01*
X53589233Y-39892238D01*
X53589233Y-39892237D01*
X53686733Y-39709828D01*
X53817946Y-39549946D01*
X53977828Y-39418733D01*
X54160237Y-39321233D01*
X54226213Y-39301220D01*
X54358164Y-39261193D01*
X54435293Y-39253596D01*
X54512420Y-39246000D01*
X54615580Y-39246000D01*
X54692707Y-39253596D01*
X54692707Y-39253596D01*
G37*
G36*
X102952707Y-37729596D02*
X103029836Y-37737193D01*
X103161787Y-37777220D01*
X103227763Y-37797233D01*
X103410172Y-37894733D01*
X103570054Y-38025946D01*
X103701267Y-38185828D01*
X103798767Y-38368237D01*
X103818780Y-38434213D01*
X103858807Y-38566164D01*
X103879080Y-38772000D01*
X103858807Y-38977836D01*
X103818780Y-39109787D01*
X103798767Y-39175763D01*
X103701267Y-39358172D01*
X103570054Y-39518054D01*
X103410172Y-39649267D01*
X103227763Y-39746767D01*
X103192281Y-39757530D01*
X103029836Y-39806807D01*
X102952707Y-39814403D01*
X102875580Y-39822000D01*
X102772420Y-39822000D01*
X102695293Y-39814403D01*
X102618164Y-39806807D01*
X102455719Y-39757530D01*
X102420237Y-39746767D01*
X102237828Y-39649267D01*
X102077946Y-39518054D01*
X101946733Y-39358172D01*
X101849233Y-39175763D01*
X101829220Y-39109787D01*
X101789193Y-38977836D01*
X101768920Y-38772000D01*
X101789193Y-38566164D01*
X101829220Y-38434213D01*
X101849233Y-38368237D01*
X101946733Y-38185828D01*
X102077946Y-38025946D01*
X102237828Y-37894733D01*
X102420237Y-37797233D01*
X102486213Y-37777220D01*
X102618164Y-37737193D01*
X102695293Y-37729596D01*
X102772420Y-37722000D01*
X102875580Y-37722000D01*
X102952707Y-37729596D01*
X102952707Y-37729596D01*
G37*
G36*
X83081030Y-37786469D02*
X83081033Y-37786470D01*
X83081034Y-37786470D01*
X83269535Y-37843651D01*
X83269537Y-37843652D01*
X83443260Y-37936509D01*
X83595528Y-38061472D01*
X83720491Y-38213740D01*
X83720492Y-38213742D01*
X83813349Y-38387465D01*
X83867557Y-38566166D01*
X83870531Y-38575970D01*
X83889838Y-38772000D01*
X83870531Y-38968030D01*
X83870530Y-38968033D01*
X83870530Y-38968034D01*
X83867557Y-38977836D01*
X83813348Y-39156537D01*
X83720491Y-39330260D01*
X83595528Y-39482528D01*
X83443260Y-39607491D01*
X83443258Y-39607492D01*
X83269535Y-39700349D01*
X83081034Y-39757530D01*
X83081033Y-39757530D01*
X83081030Y-39757531D01*
X82934124Y-39772000D01*
X82835876Y-39772000D01*
X82688970Y-39757531D01*
X82688967Y-39757530D01*
X82688966Y-39757530D01*
X82500465Y-39700349D01*
X82326742Y-39607492D01*
X82326740Y-39607491D01*
X82174472Y-39482528D01*
X82049509Y-39330260D01*
X81956652Y-39156537D01*
X81902444Y-38977836D01*
X81899470Y-38968034D01*
X81899470Y-38968033D01*
X81899469Y-38968030D01*
X81880162Y-38772000D01*
X81899469Y-38575970D01*
X81902443Y-38566166D01*
X81956651Y-38387465D01*
X82049508Y-38213742D01*
X82049509Y-38213740D01*
X82174472Y-38061472D01*
X82326740Y-37936509D01*
X82500463Y-37843652D01*
X82500465Y-37843651D01*
X82688966Y-37786470D01*
X82688967Y-37786470D01*
X82688970Y-37786469D01*
X82835876Y-37772000D01*
X82934124Y-37772000D01*
X83081030Y-37786469D01*
X83081030Y-37786469D01*
G37*
G36*
X75461030Y-37786469D02*
X75461033Y-37786470D01*
X75461034Y-37786470D01*
X75649535Y-37843651D01*
X75649537Y-37843652D01*
X75823260Y-37936509D01*
X75975528Y-38061472D01*
X76100491Y-38213740D01*
X76100492Y-38213742D01*
X76193349Y-38387465D01*
X76247557Y-38566166D01*
X76250531Y-38575970D01*
X76269838Y-38772000D01*
X76250531Y-38968030D01*
X76250530Y-38968033D01*
X76250530Y-38968034D01*
X76247557Y-38977836D01*
X76193348Y-39156537D01*
X76100491Y-39330260D01*
X75975528Y-39482528D01*
X75823260Y-39607491D01*
X75823258Y-39607492D01*
X75649535Y-39700349D01*
X75461034Y-39757530D01*
X75461033Y-39757530D01*
X75461030Y-39757531D01*
X75314124Y-39772000D01*
X75215876Y-39772000D01*
X75068970Y-39757531D01*
X75068967Y-39757530D01*
X75068966Y-39757530D01*
X74880465Y-39700349D01*
X74706742Y-39607492D01*
X74706740Y-39607491D01*
X74554472Y-39482528D01*
X74429509Y-39330260D01*
X74336652Y-39156537D01*
X74282444Y-38977836D01*
X74279470Y-38968034D01*
X74279470Y-38968033D01*
X74279469Y-38968030D01*
X74260162Y-38772000D01*
X74279469Y-38575970D01*
X74282443Y-38566166D01*
X74336651Y-38387465D01*
X74429508Y-38213742D01*
X74429509Y-38213740D01*
X74554472Y-38061472D01*
X74706740Y-37936509D01*
X74880463Y-37843652D01*
X74880465Y-37843651D01*
X75068966Y-37786470D01*
X75068967Y-37786470D01*
X75068970Y-37786469D01*
X75215876Y-37772000D01*
X75314124Y-37772000D01*
X75461030Y-37786469D01*
X75461030Y-37786469D01*
G37*
G36*
X54692707Y-36713596D02*
X54769836Y-36721193D01*
X54901787Y-36761220D01*
X54967763Y-36781233D01*
X55150172Y-36878733D01*
X55310054Y-37009946D01*
X55441267Y-37169828D01*
X55538767Y-37352237D01*
X55538767Y-37352238D01*
X55598807Y-37550164D01*
X55619080Y-37756000D01*
X55598807Y-37961836D01*
X55568583Y-38061472D01*
X55538767Y-38159763D01*
X55441267Y-38342172D01*
X55310054Y-38502054D01*
X55150172Y-38633267D01*
X54967763Y-38730767D01*
X54901787Y-38750780D01*
X54769836Y-38790807D01*
X54692707Y-38798404D01*
X54615580Y-38806000D01*
X54512420Y-38806000D01*
X54435293Y-38798404D01*
X54358164Y-38790807D01*
X54226213Y-38750780D01*
X54160237Y-38730767D01*
X53977828Y-38633267D01*
X53817946Y-38502054D01*
X53686733Y-38342172D01*
X53589233Y-38159763D01*
X53559417Y-38061472D01*
X53529193Y-37961836D01*
X53508920Y-37756000D01*
X53529193Y-37550164D01*
X53589233Y-37352238D01*
X53589233Y-37352237D01*
X53686733Y-37169828D01*
X53817946Y-37009946D01*
X53977828Y-36878733D01*
X54160237Y-36781233D01*
X54226213Y-36761220D01*
X54358164Y-36721193D01*
X54435293Y-36713596D01*
X54512420Y-36706000D01*
X54615580Y-36706000D01*
X54692707Y-36713596D01*
X54692707Y-36713596D01*
G37*
G36*
X102952707Y-35189596D02*
X103029836Y-35197193D01*
X103161787Y-35237220D01*
X103227763Y-35257233D01*
X103410172Y-35354733D01*
X103570054Y-35485946D01*
X103701267Y-35645828D01*
X103798767Y-35828237D01*
X103818780Y-35894213D01*
X103858807Y-36026164D01*
X103879080Y-36232000D01*
X103858807Y-36437836D01*
X103818780Y-36569787D01*
X103798767Y-36635763D01*
X103701267Y-36818172D01*
X103570054Y-36978054D01*
X103410172Y-37109267D01*
X103227763Y-37206767D01*
X103192281Y-37217530D01*
X103029836Y-37266807D01*
X102952707Y-37274404D01*
X102875580Y-37282000D01*
X102772420Y-37282000D01*
X102695293Y-37274404D01*
X102618164Y-37266807D01*
X102455719Y-37217530D01*
X102420237Y-37206767D01*
X102237828Y-37109267D01*
X102077946Y-36978054D01*
X101946733Y-36818172D01*
X101849233Y-36635763D01*
X101829220Y-36569787D01*
X101789193Y-36437836D01*
X101768920Y-36232000D01*
X101789193Y-36026164D01*
X101829220Y-35894213D01*
X101849233Y-35828237D01*
X101946733Y-35645828D01*
X102077946Y-35485946D01*
X102237828Y-35354733D01*
X102420237Y-35257233D01*
X102486213Y-35237220D01*
X102618164Y-35197193D01*
X102695293Y-35189596D01*
X102772420Y-35182000D01*
X102875580Y-35182000D01*
X102952707Y-35189596D01*
X102952707Y-35189596D01*
G37*
G36*
X83081030Y-35246469D02*
X83081033Y-35246470D01*
X83081034Y-35246470D01*
X83269535Y-35303651D01*
X83269537Y-35303652D01*
X83443260Y-35396509D01*
X83595528Y-35521472D01*
X83720491Y-35673740D01*
X83720492Y-35673742D01*
X83813349Y-35847465D01*
X83867557Y-36026166D01*
X83870531Y-36035970D01*
X83889838Y-36232000D01*
X83870531Y-36428030D01*
X83870530Y-36428033D01*
X83870530Y-36428034D01*
X83867557Y-36437836D01*
X83813348Y-36616537D01*
X83720491Y-36790260D01*
X83595528Y-36942528D01*
X83443260Y-37067491D01*
X83443258Y-37067492D01*
X83269535Y-37160349D01*
X83081034Y-37217530D01*
X83081033Y-37217530D01*
X83081030Y-37217531D01*
X82934124Y-37232000D01*
X82835876Y-37232000D01*
X82688970Y-37217531D01*
X82688967Y-37217530D01*
X82688966Y-37217530D01*
X82500465Y-37160349D01*
X82326742Y-37067492D01*
X82326740Y-37067491D01*
X82174472Y-36942528D01*
X82049509Y-36790260D01*
X81956652Y-36616537D01*
X81902444Y-36437836D01*
X81899470Y-36428034D01*
X81899470Y-36428033D01*
X81899469Y-36428030D01*
X81880162Y-36232000D01*
X81899469Y-36035970D01*
X81902443Y-36026166D01*
X81956651Y-35847465D01*
X82049508Y-35673742D01*
X82049509Y-35673740D01*
X82174472Y-35521472D01*
X82326740Y-35396509D01*
X82500463Y-35303652D01*
X82500465Y-35303651D01*
X82688966Y-35246470D01*
X82688967Y-35246470D01*
X82688970Y-35246469D01*
X82835876Y-35232000D01*
X82934124Y-35232000D01*
X83081030Y-35246469D01*
X83081030Y-35246469D01*
G37*
G36*
X75461030Y-35246469D02*
X75461033Y-35246470D01*
X75461034Y-35246470D01*
X75649535Y-35303651D01*
X75649537Y-35303652D01*
X75823260Y-35396509D01*
X75975528Y-35521472D01*
X76100491Y-35673740D01*
X76100492Y-35673742D01*
X76193349Y-35847465D01*
X76247557Y-36026166D01*
X76250531Y-36035970D01*
X76269838Y-36232000D01*
X76250531Y-36428030D01*
X76250530Y-36428033D01*
X76250530Y-36428034D01*
X76247557Y-36437836D01*
X76193348Y-36616537D01*
X76100491Y-36790260D01*
X75975528Y-36942528D01*
X75823260Y-37067491D01*
X75823258Y-37067492D01*
X75649535Y-37160349D01*
X75461034Y-37217530D01*
X75461033Y-37217530D01*
X75461030Y-37217531D01*
X75314124Y-37232000D01*
X75215876Y-37232000D01*
X75068970Y-37217531D01*
X75068967Y-37217530D01*
X75068966Y-37217530D01*
X74880465Y-37160349D01*
X74706742Y-37067492D01*
X74706740Y-37067491D01*
X74554472Y-36942528D01*
X74429509Y-36790260D01*
X74336652Y-36616537D01*
X74282444Y-36437836D01*
X74279470Y-36428034D01*
X74279470Y-36428033D01*
X74279469Y-36428030D01*
X74260162Y-36232000D01*
X74279469Y-36035970D01*
X74282443Y-36026166D01*
X74336651Y-35847465D01*
X74429508Y-35673742D01*
X74429509Y-35673740D01*
X74554472Y-35521472D01*
X74706740Y-35396509D01*
X74880463Y-35303652D01*
X74880465Y-35303651D01*
X75068966Y-35246470D01*
X75068967Y-35246470D01*
X75068970Y-35246469D01*
X75215876Y-35232000D01*
X75314124Y-35232000D01*
X75461030Y-35246469D01*
X75461030Y-35246469D01*
G37*
G36*
X96416030Y-35246469D02*
X96416033Y-35246470D01*
X96416034Y-35246470D01*
X96604535Y-35303651D01*
X96604537Y-35303652D01*
X96778260Y-35396509D01*
X96930528Y-35521472D01*
X97055491Y-35673740D01*
X97055492Y-35673742D01*
X97148349Y-35847465D01*
X97202557Y-36026166D01*
X97205531Y-36035970D01*
X97224838Y-36232000D01*
X97205531Y-36428030D01*
X97205530Y-36428033D01*
X97205530Y-36428034D01*
X97202557Y-36437836D01*
X97148348Y-36616537D01*
X97055491Y-36790260D01*
X96930528Y-36942528D01*
X96778260Y-37067491D01*
X96778258Y-37067492D01*
X96604535Y-37160349D01*
X96416034Y-37217530D01*
X96416033Y-37217530D01*
X96416030Y-37217531D01*
X96269124Y-37232000D01*
X96170876Y-37232000D01*
X96023970Y-37217531D01*
X96023967Y-37217530D01*
X96023966Y-37217530D01*
X95835465Y-37160349D01*
X95661742Y-37067492D01*
X95661740Y-37067491D01*
X95509472Y-36942528D01*
X95384509Y-36790260D01*
X95291652Y-36616537D01*
X95237444Y-36437836D01*
X95234470Y-36428034D01*
X95234470Y-36428033D01*
X95234469Y-36428030D01*
X95215162Y-36232000D01*
X95234469Y-36035970D01*
X95237443Y-36026166D01*
X95291651Y-35847465D01*
X95384508Y-35673742D01*
X95384509Y-35673740D01*
X95509472Y-35521472D01*
X95661740Y-35396509D01*
X95835463Y-35303652D01*
X95835465Y-35303651D01*
X96023966Y-35246470D01*
X96023967Y-35246470D01*
X96023970Y-35246469D01*
X96170876Y-35232000D01*
X96269124Y-35232000D01*
X96416030Y-35246469D01*
X96416030Y-35246469D01*
G37*
G36*
X88796030Y-35246469D02*
X88796033Y-35246470D01*
X88796034Y-35246470D01*
X88984535Y-35303651D01*
X88984537Y-35303652D01*
X89158260Y-35396509D01*
X89310528Y-35521472D01*
X89435491Y-35673740D01*
X89435492Y-35673742D01*
X89528349Y-35847465D01*
X89582557Y-36026166D01*
X89585531Y-36035970D01*
X89604838Y-36232000D01*
X89585531Y-36428030D01*
X89585530Y-36428033D01*
X89585530Y-36428034D01*
X89582557Y-36437836D01*
X89528348Y-36616537D01*
X89435491Y-36790260D01*
X89310528Y-36942528D01*
X89158260Y-37067491D01*
X89158258Y-37067492D01*
X88984535Y-37160349D01*
X88796034Y-37217530D01*
X88796033Y-37217530D01*
X88796030Y-37217531D01*
X88649124Y-37232000D01*
X88550876Y-37232000D01*
X88403970Y-37217531D01*
X88403967Y-37217530D01*
X88403966Y-37217530D01*
X88215465Y-37160349D01*
X88041742Y-37067492D01*
X88041740Y-37067491D01*
X87889472Y-36942528D01*
X87764509Y-36790260D01*
X87671652Y-36616537D01*
X87617444Y-36437836D01*
X87614470Y-36428034D01*
X87614470Y-36428033D01*
X87614469Y-36428030D01*
X87595162Y-36232000D01*
X87614469Y-36035970D01*
X87617443Y-36026166D01*
X87671651Y-35847465D01*
X87764508Y-35673742D01*
X87764509Y-35673740D01*
X87889472Y-35521472D01*
X88041740Y-35396509D01*
X88215463Y-35303652D01*
X88215465Y-35303651D01*
X88403966Y-35246470D01*
X88403967Y-35246470D01*
X88403970Y-35246469D01*
X88550876Y-35232000D01*
X88649124Y-35232000D01*
X88796030Y-35246469D01*
X88796030Y-35246469D01*
G37*
G36*
X54692707Y-34173596D02*
X54769836Y-34181193D01*
X54876671Y-34213601D01*
X54967763Y-34241233D01*
X55150172Y-34338733D01*
X55310054Y-34469946D01*
X55441267Y-34629828D01*
X55538767Y-34812237D01*
X55538767Y-34812238D01*
X55598807Y-35010164D01*
X55619080Y-35216000D01*
X55598807Y-35421836D01*
X55568583Y-35521472D01*
X55538767Y-35619763D01*
X55441267Y-35802172D01*
X55310054Y-35962054D01*
X55150172Y-36093267D01*
X54967763Y-36190767D01*
X54901787Y-36210780D01*
X54769836Y-36250807D01*
X54692707Y-36258404D01*
X54615580Y-36266000D01*
X54512420Y-36266000D01*
X54435293Y-36258404D01*
X54358164Y-36250807D01*
X54226213Y-36210780D01*
X54160237Y-36190767D01*
X53977828Y-36093267D01*
X53817946Y-35962054D01*
X53686733Y-35802172D01*
X53589233Y-35619763D01*
X53559417Y-35521472D01*
X53529193Y-35421836D01*
X53508920Y-35216000D01*
X53529193Y-35010164D01*
X53589233Y-34812238D01*
X53589233Y-34812237D01*
X53686733Y-34629828D01*
X53817946Y-34469946D01*
X53977828Y-34338733D01*
X54160237Y-34241233D01*
X54251329Y-34213601D01*
X54358164Y-34181193D01*
X54435293Y-34173596D01*
X54512420Y-34166000D01*
X54615580Y-34166000D01*
X54692707Y-34173596D01*
X54692707Y-34173596D01*
G37*
G36*
X62163352Y-34065743D02*
X62308941Y-34126048D01*
X62439973Y-34213601D01*
X62551399Y-34325027D01*
X62638952Y-34456059D01*
X62699257Y-34601648D01*
X62730000Y-34756205D01*
X62730000Y-34913795D01*
X62699257Y-35068352D01*
X62638952Y-35213941D01*
X62551399Y-35344973D01*
X62439973Y-35456399D01*
X62308941Y-35543952D01*
X62163352Y-35604257D01*
X62008795Y-35635000D01*
X61851205Y-35635000D01*
X61696648Y-35604257D01*
X61551059Y-35543952D01*
X61420027Y-35456399D01*
X61308601Y-35344973D01*
X61221048Y-35213941D01*
X61160743Y-35068352D01*
X61130000Y-34913795D01*
X61130000Y-34756205D01*
X61160743Y-34601648D01*
X61221048Y-34456059D01*
X61308601Y-34325027D01*
X61420027Y-34213601D01*
X61551059Y-34126048D01*
X61696648Y-34065743D01*
X61851205Y-34035000D01*
X62008795Y-34035000D01*
X62163352Y-34065743D01*
X62163352Y-34065743D01*
G37*
G36*
X71285000Y-34792000D02*
X69085000Y-34792000D01*
X69085000Y-32592000D01*
X71285000Y-32592000D01*
X71285000Y-34792000D01*
X71285000Y-34792000D01*
G37*
G36*
X67965857Y-32634272D02*
X68166042Y-32717191D01*
X68166045Y-32717193D01*
X68312024Y-32814733D01*
X68346213Y-32837578D01*
X68499422Y-32990787D01*
X68619809Y-33170958D01*
X68702728Y-33371143D01*
X68745000Y-33583658D01*
X68745000Y-33800342D01*
X68702728Y-34012857D01*
X68619809Y-34213042D01*
X68499422Y-34393213D01*
X68346213Y-34546422D01*
X68346210Y-34546424D01*
X68346209Y-34546425D01*
X68235574Y-34620349D01*
X68166042Y-34666809D01*
X67965857Y-34749728D01*
X67753342Y-34792000D01*
X67536658Y-34792000D01*
X67324143Y-34749728D01*
X67123958Y-34666809D01*
X67054426Y-34620349D01*
X66943791Y-34546425D01*
X66943790Y-34546424D01*
X66943787Y-34546422D01*
X66790578Y-34393213D01*
X66670191Y-34213042D01*
X66587272Y-34012857D01*
X66545000Y-33800342D01*
X66545000Y-33583658D01*
X66587272Y-33371143D01*
X66670191Y-33170958D01*
X66790578Y-32990787D01*
X66943787Y-32837578D01*
X66977977Y-32814733D01*
X67123955Y-32717193D01*
X67123958Y-32717191D01*
X67324143Y-32634272D01*
X67536658Y-32592000D01*
X67753342Y-32592000D01*
X67965857Y-32634272D01*
X67965857Y-32634272D01*
G37*
G36*
X102952707Y-32649596D02*
X103029836Y-32657193D01*
X103161787Y-32697220D01*
X103227763Y-32717233D01*
X103410172Y-32814733D01*
X103570054Y-32945946D01*
X103701267Y-33105828D01*
X103798767Y-33288237D01*
X103818780Y-33354213D01*
X103858807Y-33486164D01*
X103879080Y-33692000D01*
X103858807Y-33897836D01*
X103818780Y-34029787D01*
X103798767Y-34095763D01*
X103701267Y-34278172D01*
X103570054Y-34438054D01*
X103410172Y-34569267D01*
X103227763Y-34666767D01*
X103192281Y-34677530D01*
X103029836Y-34726807D01*
X102952707Y-34734404D01*
X102875580Y-34742000D01*
X102772420Y-34742000D01*
X102695293Y-34734404D01*
X102618164Y-34726807D01*
X102455719Y-34677530D01*
X102420237Y-34666767D01*
X102237828Y-34569267D01*
X102077946Y-34438054D01*
X101946733Y-34278172D01*
X101849233Y-34095763D01*
X101829220Y-34029787D01*
X101789193Y-33897836D01*
X101768920Y-33692000D01*
X101789193Y-33486164D01*
X101829220Y-33354213D01*
X101849233Y-33288237D01*
X101946733Y-33105828D01*
X102077946Y-32945946D01*
X102237828Y-32814733D01*
X102420237Y-32717233D01*
X102486213Y-32697220D01*
X102618164Y-32657193D01*
X102695293Y-32649596D01*
X102772420Y-32642000D01*
X102875580Y-32642000D01*
X102952707Y-32649596D01*
X102952707Y-32649596D01*
G37*
G36*
X83081030Y-32706469D02*
X83081033Y-32706470D01*
X83081034Y-32706470D01*
X83269535Y-32763651D01*
X83269537Y-32763652D01*
X83443260Y-32856509D01*
X83595528Y-32981472D01*
X83720491Y-33133740D01*
X83720492Y-33133742D01*
X83813349Y-33307465D01*
X83867557Y-33486166D01*
X83870531Y-33495970D01*
X83889838Y-33692000D01*
X83870531Y-33888030D01*
X83870530Y-33888033D01*
X83870530Y-33888034D01*
X83816623Y-34065743D01*
X83813348Y-34076537D01*
X83720491Y-34250260D01*
X83595528Y-34402528D01*
X83443260Y-34527491D01*
X83443258Y-34527492D01*
X83269535Y-34620349D01*
X83081034Y-34677530D01*
X83081033Y-34677530D01*
X83081030Y-34677531D01*
X82934124Y-34692000D01*
X82835876Y-34692000D01*
X82688970Y-34677531D01*
X82688967Y-34677530D01*
X82688966Y-34677530D01*
X82500465Y-34620349D01*
X82326742Y-34527492D01*
X82326740Y-34527491D01*
X82174472Y-34402528D01*
X82049509Y-34250260D01*
X81956652Y-34076537D01*
X81953378Y-34065743D01*
X81899470Y-33888034D01*
X81899470Y-33888033D01*
X81899469Y-33888030D01*
X81880162Y-33692000D01*
X81899469Y-33495970D01*
X81902443Y-33486166D01*
X81956651Y-33307465D01*
X82049508Y-33133742D01*
X82049509Y-33133740D01*
X82174472Y-32981472D01*
X82326740Y-32856509D01*
X82500463Y-32763652D01*
X82500465Y-32763651D01*
X82688966Y-32706470D01*
X82688967Y-32706470D01*
X82688970Y-32706469D01*
X82835876Y-32692000D01*
X82934124Y-32692000D01*
X83081030Y-32706469D01*
X83081030Y-32706469D01*
G37*
G36*
X75461030Y-32706469D02*
X75461033Y-32706470D01*
X75461034Y-32706470D01*
X75649535Y-32763651D01*
X75649537Y-32763652D01*
X75823260Y-32856509D01*
X75975528Y-32981472D01*
X76100491Y-33133740D01*
X76100492Y-33133742D01*
X76193349Y-33307465D01*
X76247557Y-33486166D01*
X76250531Y-33495970D01*
X76269838Y-33692000D01*
X76250531Y-33888030D01*
X76250530Y-33888033D01*
X76250530Y-33888034D01*
X76196623Y-34065743D01*
X76193348Y-34076537D01*
X76100491Y-34250260D01*
X75975528Y-34402528D01*
X75823260Y-34527491D01*
X75823258Y-34527492D01*
X75649535Y-34620349D01*
X75461034Y-34677530D01*
X75461033Y-34677530D01*
X75461030Y-34677531D01*
X75314124Y-34692000D01*
X75215876Y-34692000D01*
X75068970Y-34677531D01*
X75068967Y-34677530D01*
X75068966Y-34677530D01*
X74880465Y-34620349D01*
X74706742Y-34527492D01*
X74706740Y-34527491D01*
X74554472Y-34402528D01*
X74429509Y-34250260D01*
X74336652Y-34076537D01*
X74333378Y-34065743D01*
X74279470Y-33888034D01*
X74279470Y-33888033D01*
X74279469Y-33888030D01*
X74260162Y-33692000D01*
X74279469Y-33495970D01*
X74282443Y-33486166D01*
X74336651Y-33307465D01*
X74429508Y-33133742D01*
X74429509Y-33133740D01*
X74554472Y-32981472D01*
X74706740Y-32856509D01*
X74880463Y-32763652D01*
X74880465Y-32763651D01*
X75068966Y-32706470D01*
X75068967Y-32706470D01*
X75068970Y-32706469D01*
X75215876Y-32692000D01*
X75314124Y-32692000D01*
X75461030Y-32706469D01*
X75461030Y-32706469D01*
G37*
G36*
X88796030Y-32706469D02*
X88796033Y-32706470D01*
X88796034Y-32706470D01*
X88984535Y-32763651D01*
X88984537Y-32763652D01*
X89158260Y-32856509D01*
X89310528Y-32981472D01*
X89435491Y-33133740D01*
X89435492Y-33133742D01*
X89528349Y-33307465D01*
X89582557Y-33486166D01*
X89585531Y-33495970D01*
X89604838Y-33692000D01*
X89585531Y-33888030D01*
X89585530Y-33888033D01*
X89585530Y-33888034D01*
X89531623Y-34065743D01*
X89528348Y-34076537D01*
X89435491Y-34250260D01*
X89310528Y-34402528D01*
X89158260Y-34527491D01*
X89158258Y-34527492D01*
X88984535Y-34620349D01*
X88796034Y-34677530D01*
X88796033Y-34677530D01*
X88796030Y-34677531D01*
X88649124Y-34692000D01*
X88550876Y-34692000D01*
X88403970Y-34677531D01*
X88403967Y-34677530D01*
X88403966Y-34677530D01*
X88215465Y-34620349D01*
X88041742Y-34527492D01*
X88041740Y-34527491D01*
X87889472Y-34402528D01*
X87764509Y-34250260D01*
X87671652Y-34076537D01*
X87668378Y-34065743D01*
X87614470Y-33888034D01*
X87614470Y-33888033D01*
X87614469Y-33888030D01*
X87595162Y-33692000D01*
X87614469Y-33495970D01*
X87617443Y-33486166D01*
X87671651Y-33307465D01*
X87764508Y-33133742D01*
X87764509Y-33133740D01*
X87889472Y-32981472D01*
X88041740Y-32856509D01*
X88215463Y-32763652D01*
X88215465Y-32763651D01*
X88403966Y-32706470D01*
X88403967Y-32706470D01*
X88403970Y-32706469D01*
X88550876Y-32692000D01*
X88649124Y-32692000D01*
X88796030Y-32706469D01*
X88796030Y-32706469D01*
G37*
G36*
X96416030Y-32706469D02*
X96416033Y-32706470D01*
X96416034Y-32706470D01*
X96604535Y-32763651D01*
X96604537Y-32763652D01*
X96778260Y-32856509D01*
X96930528Y-32981472D01*
X97055491Y-33133740D01*
X97055492Y-33133742D01*
X97148349Y-33307465D01*
X97202557Y-33486166D01*
X97205531Y-33495970D01*
X97224838Y-33692000D01*
X97205531Y-33888030D01*
X97205530Y-33888033D01*
X97205530Y-33888034D01*
X97151623Y-34065743D01*
X97148348Y-34076537D01*
X97055491Y-34250260D01*
X96930528Y-34402528D01*
X96778260Y-34527491D01*
X96778258Y-34527492D01*
X96604535Y-34620349D01*
X96416034Y-34677530D01*
X96416033Y-34677530D01*
X96416030Y-34677531D01*
X96269124Y-34692000D01*
X96170876Y-34692000D01*
X96023970Y-34677531D01*
X96023967Y-34677530D01*
X96023966Y-34677530D01*
X95835465Y-34620349D01*
X95661742Y-34527492D01*
X95661740Y-34527491D01*
X95509472Y-34402528D01*
X95384509Y-34250260D01*
X95291652Y-34076537D01*
X95288378Y-34065743D01*
X95234470Y-33888034D01*
X95234470Y-33888033D01*
X95234469Y-33888030D01*
X95215162Y-33692000D01*
X95234469Y-33495970D01*
X95237443Y-33486166D01*
X95291651Y-33307465D01*
X95384508Y-33133742D01*
X95384509Y-33133740D01*
X95509472Y-32981472D01*
X95661740Y-32856509D01*
X95835463Y-32763652D01*
X95835465Y-32763651D01*
X96023966Y-32706470D01*
X96023967Y-32706470D01*
X96023970Y-32706469D01*
X96170876Y-32692000D01*
X96269124Y-32692000D01*
X96416030Y-32706469D01*
X96416030Y-32706469D01*
G37*
G36*
X62730000Y-33635000D02*
X61130000Y-33635000D01*
X61130000Y-32035000D01*
X62730000Y-32035000D01*
X62730000Y-33635000D01*
X62730000Y-33635000D01*
G37*
G36*
X67965857Y-30094272D02*
X68166042Y-30177191D01*
X68166045Y-30177193D01*
X68312024Y-30274733D01*
X68346213Y-30297578D01*
X68499422Y-30450787D01*
X68619809Y-30630958D01*
X68702728Y-30831143D01*
X68745000Y-31043658D01*
X68745000Y-31260342D01*
X68702728Y-31472857D01*
X68619809Y-31673042D01*
X68499422Y-31853213D01*
X68346213Y-32006422D01*
X68346210Y-32006424D01*
X68346209Y-32006425D01*
X68235574Y-32080349D01*
X68166042Y-32126809D01*
X67965857Y-32209728D01*
X67753342Y-32252000D01*
X67536658Y-32252000D01*
X67324143Y-32209728D01*
X67123958Y-32126809D01*
X67054426Y-32080349D01*
X66943791Y-32006425D01*
X66943790Y-32006424D01*
X66943787Y-32006422D01*
X66790578Y-31853213D01*
X66670191Y-31673042D01*
X66587272Y-31472857D01*
X66545000Y-31260342D01*
X66545000Y-31043658D01*
X66587272Y-30831143D01*
X66670191Y-30630958D01*
X66790578Y-30450787D01*
X66943787Y-30297578D01*
X66977977Y-30274733D01*
X67123955Y-30177193D01*
X67123958Y-30177191D01*
X67324143Y-30094272D01*
X67536658Y-30052000D01*
X67753342Y-30052000D01*
X67965857Y-30094272D01*
X67965857Y-30094272D01*
G37*
G36*
X70505857Y-30094272D02*
X70706042Y-30177191D01*
X70706045Y-30177193D01*
X70852024Y-30274733D01*
X70886213Y-30297578D01*
X71039422Y-30450787D01*
X71159809Y-30630958D01*
X71242728Y-30831143D01*
X71285000Y-31043658D01*
X71285000Y-31260342D01*
X71242728Y-31472857D01*
X71159809Y-31673042D01*
X71039422Y-31853213D01*
X70886213Y-32006422D01*
X70886210Y-32006424D01*
X70886209Y-32006425D01*
X70775574Y-32080349D01*
X70706042Y-32126809D01*
X70505857Y-32209728D01*
X70293342Y-32252000D01*
X70076658Y-32252000D01*
X69864143Y-32209728D01*
X69663958Y-32126809D01*
X69594426Y-32080349D01*
X69483791Y-32006425D01*
X69483790Y-32006424D01*
X69483787Y-32006422D01*
X69330578Y-31853213D01*
X69210191Y-31673042D01*
X69127272Y-31472857D01*
X69085000Y-31260342D01*
X69085000Y-31043658D01*
X69127272Y-30831143D01*
X69210191Y-30630958D01*
X69330578Y-30450787D01*
X69483787Y-30297578D01*
X69517977Y-30274733D01*
X69663955Y-30177193D01*
X69663958Y-30177191D01*
X69864143Y-30094272D01*
X70076658Y-30052000D01*
X70293342Y-30052000D01*
X70505857Y-30094272D01*
X70505857Y-30094272D01*
G37*
G36*
X102952707Y-30109596D02*
X103029836Y-30117193D01*
X103161787Y-30157220D01*
X103227763Y-30177233D01*
X103410172Y-30274733D01*
X103570054Y-30405946D01*
X103701267Y-30565828D01*
X103798767Y-30748237D01*
X103818780Y-30814213D01*
X103858807Y-30946164D01*
X103879080Y-31152000D01*
X103858807Y-31357836D01*
X103818780Y-31489787D01*
X103798767Y-31555763D01*
X103701267Y-31738172D01*
X103570054Y-31898054D01*
X103410172Y-32029267D01*
X103227763Y-32126767D01*
X103192281Y-32137530D01*
X103029836Y-32186807D01*
X102952707Y-32194403D01*
X102875580Y-32202000D01*
X102772420Y-32202000D01*
X102695293Y-32194403D01*
X102618164Y-32186807D01*
X102455719Y-32137530D01*
X102420237Y-32126767D01*
X102237828Y-32029267D01*
X102077946Y-31898054D01*
X101946733Y-31738172D01*
X101849233Y-31555763D01*
X101829220Y-31489787D01*
X101789193Y-31357836D01*
X101768920Y-31152000D01*
X101789193Y-30946164D01*
X101829220Y-30814213D01*
X101849233Y-30748237D01*
X101946733Y-30565828D01*
X102077946Y-30405946D01*
X102237828Y-30274733D01*
X102420237Y-30177233D01*
X102486213Y-30157220D01*
X102618164Y-30117193D01*
X102695293Y-30109596D01*
X102772420Y-30102000D01*
X102875580Y-30102000D01*
X102952707Y-30109596D01*
X102952707Y-30109596D01*
G37*
G36*
X83081030Y-30166469D02*
X83081033Y-30166470D01*
X83081034Y-30166470D01*
X83269535Y-30223651D01*
X83269537Y-30223652D01*
X83443260Y-30316509D01*
X83595528Y-30441472D01*
X83720491Y-30593740D01*
X83720492Y-30593742D01*
X83813349Y-30767465D01*
X83867557Y-30946166D01*
X83870531Y-30955970D01*
X83889838Y-31152000D01*
X83870531Y-31348030D01*
X83870530Y-31348033D01*
X83870530Y-31348034D01*
X83867557Y-31357836D01*
X83813348Y-31536537D01*
X83720491Y-31710260D01*
X83595528Y-31862528D01*
X83443260Y-31987491D01*
X83443258Y-31987492D01*
X83269535Y-32080349D01*
X83081034Y-32137530D01*
X83081033Y-32137530D01*
X83081030Y-32137531D01*
X82934124Y-32152000D01*
X82835876Y-32152000D01*
X82688970Y-32137531D01*
X82688967Y-32137530D01*
X82688966Y-32137530D01*
X82500465Y-32080349D01*
X82326742Y-31987492D01*
X82326740Y-31987491D01*
X82174472Y-31862528D01*
X82049509Y-31710260D01*
X81956652Y-31536537D01*
X81902444Y-31357836D01*
X81899470Y-31348034D01*
X81899470Y-31348033D01*
X81899469Y-31348030D01*
X81880162Y-31152000D01*
X81899469Y-30955970D01*
X81902443Y-30946166D01*
X81956651Y-30767465D01*
X82049508Y-30593742D01*
X82049509Y-30593740D01*
X82174472Y-30441472D01*
X82326740Y-30316509D01*
X82500463Y-30223652D01*
X82500465Y-30223651D01*
X82688966Y-30166470D01*
X82688967Y-30166470D01*
X82688970Y-30166469D01*
X82835876Y-30152000D01*
X82934124Y-30152000D01*
X83081030Y-30166469D01*
X83081030Y-30166469D01*
G37*
G36*
X88796030Y-30166469D02*
X88796033Y-30166470D01*
X88796034Y-30166470D01*
X88984535Y-30223651D01*
X88984537Y-30223652D01*
X89158260Y-30316509D01*
X89310528Y-30441472D01*
X89435491Y-30593740D01*
X89435492Y-30593742D01*
X89528349Y-30767465D01*
X89582557Y-30946166D01*
X89585531Y-30955970D01*
X89604838Y-31152000D01*
X89585531Y-31348030D01*
X89585530Y-31348033D01*
X89585530Y-31348034D01*
X89582557Y-31357836D01*
X89528348Y-31536537D01*
X89435491Y-31710260D01*
X89310528Y-31862528D01*
X89158260Y-31987491D01*
X89158258Y-31987492D01*
X88984535Y-32080349D01*
X88796034Y-32137530D01*
X88796033Y-32137530D01*
X88796030Y-32137531D01*
X88649124Y-32152000D01*
X88550876Y-32152000D01*
X88403970Y-32137531D01*
X88403967Y-32137530D01*
X88403966Y-32137530D01*
X88215465Y-32080349D01*
X88041742Y-31987492D01*
X88041740Y-31987491D01*
X87889472Y-31862528D01*
X87764509Y-31710260D01*
X87671652Y-31536537D01*
X87617444Y-31357836D01*
X87614470Y-31348034D01*
X87614470Y-31348033D01*
X87614469Y-31348030D01*
X87595162Y-31152000D01*
X87614469Y-30955970D01*
X87617443Y-30946166D01*
X87671651Y-30767465D01*
X87764508Y-30593742D01*
X87764509Y-30593740D01*
X87889472Y-30441472D01*
X88041740Y-30316509D01*
X88215463Y-30223652D01*
X88215465Y-30223651D01*
X88403966Y-30166470D01*
X88403967Y-30166470D01*
X88403970Y-30166469D01*
X88550876Y-30152000D01*
X88649124Y-30152000D01*
X88796030Y-30166469D01*
X88796030Y-30166469D01*
G37*
G36*
X75461030Y-30166469D02*
X75461033Y-30166470D01*
X75461034Y-30166470D01*
X75649535Y-30223651D01*
X75649537Y-30223652D01*
X75823260Y-30316509D01*
X75975528Y-30441472D01*
X76100491Y-30593740D01*
X76100492Y-30593742D01*
X76193349Y-30767465D01*
X76247557Y-30946166D01*
X76250531Y-30955970D01*
X76269838Y-31152000D01*
X76250531Y-31348030D01*
X76250530Y-31348033D01*
X76250530Y-31348034D01*
X76247557Y-31357836D01*
X76193348Y-31536537D01*
X76100491Y-31710260D01*
X75975528Y-31862528D01*
X75823260Y-31987491D01*
X75823258Y-31987492D01*
X75649535Y-32080349D01*
X75461034Y-32137530D01*
X75461033Y-32137530D01*
X75461030Y-32137531D01*
X75314124Y-32152000D01*
X75215876Y-32152000D01*
X75068970Y-32137531D01*
X75068967Y-32137530D01*
X75068966Y-32137530D01*
X74880465Y-32080349D01*
X74706742Y-31987492D01*
X74706740Y-31987491D01*
X74554472Y-31862528D01*
X74429509Y-31710260D01*
X74336652Y-31536537D01*
X74282444Y-31357836D01*
X74279470Y-31348034D01*
X74279470Y-31348033D01*
X74279469Y-31348030D01*
X74260162Y-31152000D01*
X74279469Y-30955970D01*
X74282443Y-30946166D01*
X74336651Y-30767465D01*
X74429508Y-30593742D01*
X74429509Y-30593740D01*
X74554472Y-30441472D01*
X74706740Y-30316509D01*
X74880463Y-30223652D01*
X74880465Y-30223651D01*
X75068966Y-30166470D01*
X75068967Y-30166470D01*
X75068970Y-30166469D01*
X75215876Y-30152000D01*
X75314124Y-30152000D01*
X75461030Y-30166469D01*
X75461030Y-30166469D01*
G37*
G36*
X96416030Y-30166469D02*
X96416033Y-30166470D01*
X96416034Y-30166470D01*
X96604535Y-30223651D01*
X96604537Y-30223652D01*
X96778260Y-30316509D01*
X96930528Y-30441472D01*
X97055491Y-30593740D01*
X97055492Y-30593742D01*
X97148349Y-30767465D01*
X97202557Y-30946166D01*
X97205531Y-30955970D01*
X97224838Y-31152000D01*
X97205531Y-31348030D01*
X97205530Y-31348033D01*
X97205530Y-31348034D01*
X97202557Y-31357836D01*
X97148348Y-31536537D01*
X97055491Y-31710260D01*
X96930528Y-31862528D01*
X96778260Y-31987491D01*
X96778258Y-31987492D01*
X96604535Y-32080349D01*
X96416034Y-32137530D01*
X96416033Y-32137530D01*
X96416030Y-32137531D01*
X96269124Y-32152000D01*
X96170876Y-32152000D01*
X96023970Y-32137531D01*
X96023967Y-32137530D01*
X96023966Y-32137530D01*
X95835465Y-32080349D01*
X95661742Y-31987492D01*
X95661740Y-31987491D01*
X95509472Y-31862528D01*
X95384509Y-31710260D01*
X95291652Y-31536537D01*
X95237444Y-31357836D01*
X95234470Y-31348034D01*
X95234470Y-31348033D01*
X95234469Y-31348030D01*
X95215162Y-31152000D01*
X95234469Y-30955970D01*
X95237443Y-30946166D01*
X95291651Y-30767465D01*
X95384508Y-30593742D01*
X95384509Y-30593740D01*
X95509472Y-30441472D01*
X95661740Y-30316509D01*
X95835463Y-30223652D01*
X95835465Y-30223651D01*
X96023966Y-30166470D01*
X96023967Y-30166470D01*
X96023970Y-30166469D01*
X96170876Y-30152000D01*
X96269124Y-30152000D01*
X96416030Y-30166469D01*
X96416030Y-30166469D01*
G37*
G36*
X67965857Y-27554272D02*
X68166042Y-27637191D01*
X68166045Y-27637193D01*
X68235576Y-27683652D01*
X68346213Y-27757578D01*
X68499422Y-27910787D01*
X68619809Y-28090958D01*
X68702728Y-28291143D01*
X68745000Y-28503658D01*
X68745000Y-28720342D01*
X68702728Y-28932857D01*
X68619809Y-29133042D01*
X68499422Y-29313213D01*
X68346213Y-29466422D01*
X68346210Y-29466424D01*
X68346209Y-29466425D01*
X68235574Y-29540349D01*
X68166042Y-29586809D01*
X67965857Y-29669728D01*
X67753342Y-29712000D01*
X67536658Y-29712000D01*
X67324143Y-29669728D01*
X67123958Y-29586809D01*
X67054426Y-29540349D01*
X66943791Y-29466425D01*
X66943790Y-29466424D01*
X66943787Y-29466422D01*
X66790578Y-29313213D01*
X66670191Y-29133042D01*
X66587272Y-28932857D01*
X66545000Y-28720342D01*
X66545000Y-28503658D01*
X66587272Y-28291143D01*
X66670191Y-28090958D01*
X66790578Y-27910787D01*
X66943787Y-27757578D01*
X67054425Y-27683652D01*
X67123955Y-27637193D01*
X67123958Y-27637191D01*
X67324143Y-27554272D01*
X67536658Y-27512000D01*
X67753342Y-27512000D01*
X67965857Y-27554272D01*
X67965857Y-27554272D01*
G37*
G36*
X70505857Y-27554272D02*
X70706042Y-27637191D01*
X70706045Y-27637193D01*
X70775576Y-27683652D01*
X70886213Y-27757578D01*
X71039422Y-27910787D01*
X71159809Y-28090958D01*
X71242728Y-28291143D01*
X71285000Y-28503658D01*
X71285000Y-28720342D01*
X71242728Y-28932857D01*
X71159809Y-29133042D01*
X71039422Y-29313213D01*
X70886213Y-29466422D01*
X70886210Y-29466424D01*
X70886209Y-29466425D01*
X70775574Y-29540349D01*
X70706042Y-29586809D01*
X70505857Y-29669728D01*
X70293342Y-29712000D01*
X70076658Y-29712000D01*
X69864143Y-29669728D01*
X69663958Y-29586809D01*
X69594426Y-29540349D01*
X69483791Y-29466425D01*
X69483790Y-29466424D01*
X69483787Y-29466422D01*
X69330578Y-29313213D01*
X69210191Y-29133042D01*
X69127272Y-28932857D01*
X69085000Y-28720342D01*
X69085000Y-28503658D01*
X69127272Y-28291143D01*
X69210191Y-28090958D01*
X69330578Y-27910787D01*
X69483787Y-27757578D01*
X69594425Y-27683652D01*
X69663955Y-27637193D01*
X69663958Y-27637191D01*
X69864143Y-27554272D01*
X70076658Y-27512000D01*
X70293342Y-27512000D01*
X70505857Y-27554272D01*
X70505857Y-27554272D01*
G37*
G36*
X103874000Y-29662000D02*
X101774000Y-29662000D01*
X101774000Y-27562000D01*
X103874000Y-27562000D01*
X103874000Y-29662000D01*
X103874000Y-29662000D01*
G37*
G36*
X76265000Y-29612000D02*
X74265000Y-29612000D01*
X74265000Y-27612000D01*
X76265000Y-27612000D01*
X76265000Y-29612000D01*
X76265000Y-29612000D01*
G37*
G36*
X96416030Y-27626469D02*
X96416033Y-27626470D01*
X96416034Y-27626470D01*
X96604535Y-27683651D01*
X96604537Y-27683652D01*
X96778260Y-27776509D01*
X96930528Y-27901472D01*
X97055491Y-28053740D01*
X97148348Y-28227463D01*
X97205531Y-28415970D01*
X97224838Y-28612000D01*
X97205531Y-28808030D01*
X97148348Y-28996537D01*
X97055491Y-29170260D01*
X96930528Y-29322528D01*
X96778260Y-29447491D01*
X96778258Y-29447492D01*
X96604535Y-29540349D01*
X96416034Y-29597530D01*
X96416033Y-29597530D01*
X96416030Y-29597531D01*
X96269124Y-29612000D01*
X96170876Y-29612000D01*
X96023970Y-29597531D01*
X96023967Y-29597530D01*
X96023966Y-29597530D01*
X95835465Y-29540349D01*
X95661742Y-29447492D01*
X95661740Y-29447491D01*
X95509472Y-29322528D01*
X95384509Y-29170260D01*
X95291652Y-28996537D01*
X95234469Y-28808030D01*
X95215162Y-28612000D01*
X95234469Y-28415970D01*
X95291652Y-28227463D01*
X95384509Y-28053740D01*
X95509472Y-27901472D01*
X95661740Y-27776509D01*
X95835463Y-27683652D01*
X95835465Y-27683651D01*
X96023966Y-27626470D01*
X96023967Y-27626470D01*
X96023970Y-27626469D01*
X96170876Y-27612000D01*
X96269124Y-27612000D01*
X96416030Y-27626469D01*
X96416030Y-27626469D01*
G37*
G36*
X83081030Y-27626469D02*
X83081033Y-27626470D01*
X83081034Y-27626470D01*
X83269535Y-27683651D01*
X83269537Y-27683652D01*
X83443260Y-27776509D01*
X83595528Y-27901472D01*
X83720491Y-28053740D01*
X83813348Y-28227463D01*
X83870531Y-28415970D01*
X83889838Y-28612000D01*
X83870531Y-28808030D01*
X83813348Y-28996537D01*
X83720491Y-29170260D01*
X83595528Y-29322528D01*
X83443260Y-29447491D01*
X83443258Y-29447492D01*
X83269535Y-29540349D01*
X83081034Y-29597530D01*
X83081033Y-29597530D01*
X83081030Y-29597531D01*
X82934124Y-29612000D01*
X82835876Y-29612000D01*
X82688970Y-29597531D01*
X82688967Y-29597530D01*
X82688966Y-29597530D01*
X82500465Y-29540349D01*
X82326742Y-29447492D01*
X82326740Y-29447491D01*
X82174472Y-29322528D01*
X82049509Y-29170260D01*
X81956652Y-28996537D01*
X81899469Y-28808030D01*
X81880162Y-28612000D01*
X81899469Y-28415970D01*
X81956652Y-28227463D01*
X82049509Y-28053740D01*
X82174472Y-27901472D01*
X82326740Y-27776509D01*
X82500463Y-27683652D01*
X82500465Y-27683651D01*
X82688966Y-27626470D01*
X82688967Y-27626470D01*
X82688970Y-27626469D01*
X82835876Y-27612000D01*
X82934124Y-27612000D01*
X83081030Y-27626469D01*
X83081030Y-27626469D01*
G37*
G36*
X89600000Y-29612000D02*
X87600000Y-29612000D01*
X87600000Y-27612000D01*
X89600000Y-27612000D01*
X89600000Y-29612000D01*
X89600000Y-29612000D01*
G37*
M02*
