G04 #@! TF.GenerationSoftware,KiCad,Pcbnew,5.0.2-bee76a0~70~ubuntu18.04.1*
G04 #@! TF.CreationDate,2019-03-01T14:38:36+01:00*
G04 #@! TF.ProjectId,skewboards,736b6577-626f-4617-9264-732e6b696361,rev?*
G04 #@! TF.SameCoordinates,Original*
G04 #@! TF.FileFunction,Legend,Top*
G04 #@! TF.FilePolarity,Positive*
%FSLAX46Y46*%
G04 Gerber Fmt 4.6, Leading zero omitted, Abs format (unit mm)*
G04 Created by KiCad (PCBNEW 5.0.2-bee76a0~70~ubuntu18.04.1) date ven. 01 mars 2019 14:38:36 CET*
%MOMM*%
%LPD*%
G01*
G04 APERTURE LIST*
%ADD10C,0.100000*%
%ADD11C,0.120000*%
%ADD12C,0.150000*%
%ADD13C,0.200000*%
G04 APERTURE END LIST*
D10*
X67561833Y-37347190D02*
X67395166Y-37109095D01*
X67276119Y-37347190D02*
X67276119Y-36847190D01*
X67466595Y-36847190D01*
X67514214Y-36871000D01*
X67538023Y-36894809D01*
X67561833Y-36942428D01*
X67561833Y-37013857D01*
X67538023Y-37061476D01*
X67514214Y-37085285D01*
X67466595Y-37109095D01*
X67276119Y-37109095D01*
X67752309Y-37323380D02*
X67823738Y-37347190D01*
X67942785Y-37347190D01*
X67990404Y-37323380D01*
X68014214Y-37299571D01*
X68038023Y-37251952D01*
X68038023Y-37204333D01*
X68014214Y-37156714D01*
X67990404Y-37132904D01*
X67942785Y-37109095D01*
X67847547Y-37085285D01*
X67799928Y-37061476D01*
X67776119Y-37037666D01*
X67752309Y-36990047D01*
X67752309Y-36942428D01*
X67776119Y-36894809D01*
X67799928Y-36871000D01*
X67847547Y-36847190D01*
X67966595Y-36847190D01*
X68038023Y-36871000D01*
X68180880Y-36847190D02*
X68466595Y-36847190D01*
X68323738Y-37347190D02*
X68323738Y-36847190D01*
X69657071Y-36871000D02*
X69609452Y-36847190D01*
X69538023Y-36847190D01*
X69466595Y-36871000D01*
X69418976Y-36918619D01*
X69395166Y-36966238D01*
X69371357Y-37061476D01*
X69371357Y-37132904D01*
X69395166Y-37228142D01*
X69418976Y-37275761D01*
X69466595Y-37323380D01*
X69538023Y-37347190D01*
X69585642Y-37347190D01*
X69657071Y-37323380D01*
X69680880Y-37299571D01*
X69680880Y-37132904D01*
X69585642Y-37132904D01*
X69895166Y-37347190D02*
X69895166Y-36847190D01*
X70180880Y-37347190D01*
X70180880Y-36847190D01*
X70418976Y-37347190D02*
X70418976Y-36847190D01*
X70538023Y-36847190D01*
X70609452Y-36871000D01*
X70657071Y-36918619D01*
X70680880Y-36966238D01*
X70704690Y-37061476D01*
X70704690Y-37132904D01*
X70680880Y-37228142D01*
X70657071Y-37275761D01*
X70609452Y-37323380D01*
X70538023Y-37347190D01*
X70418976Y-37347190D01*
X67113428Y-36561380D02*
X67184857Y-36585190D01*
X67303904Y-36585190D01*
X67351523Y-36561380D01*
X67375333Y-36537571D01*
X67399142Y-36489952D01*
X67399142Y-36442333D01*
X67375333Y-36394714D01*
X67351523Y-36370904D01*
X67303904Y-36347095D01*
X67208666Y-36323285D01*
X67161047Y-36299476D01*
X67137238Y-36275666D01*
X67113428Y-36228047D01*
X67113428Y-36180428D01*
X67137238Y-36132809D01*
X67161047Y-36109000D01*
X67208666Y-36085190D01*
X67327714Y-36085190D01*
X67399142Y-36109000D01*
X67899142Y-36537571D02*
X67875333Y-36561380D01*
X67803904Y-36585190D01*
X67756285Y-36585190D01*
X67684857Y-36561380D01*
X67637238Y-36513761D01*
X67613428Y-36466142D01*
X67589619Y-36370904D01*
X67589619Y-36299476D01*
X67613428Y-36204238D01*
X67637238Y-36156619D01*
X67684857Y-36109000D01*
X67756285Y-36085190D01*
X67803904Y-36085190D01*
X67875333Y-36109000D01*
X67899142Y-36132809D01*
X68113428Y-36585190D02*
X68113428Y-36085190D01*
X68399142Y-36585190D02*
X68184857Y-36299476D01*
X68399142Y-36085190D02*
X68113428Y-36370904D01*
X69375333Y-36585190D02*
X69375333Y-36085190D01*
X69542000Y-36442333D01*
X69708666Y-36085190D01*
X69708666Y-36585190D01*
X70042000Y-36085190D02*
X70137238Y-36085190D01*
X70184857Y-36109000D01*
X70232476Y-36156619D01*
X70256285Y-36251857D01*
X70256285Y-36418523D01*
X70232476Y-36513761D01*
X70184857Y-36561380D01*
X70137238Y-36585190D01*
X70042000Y-36585190D01*
X69994380Y-36561380D01*
X69946761Y-36513761D01*
X69922952Y-36418523D01*
X69922952Y-36251857D01*
X69946761Y-36156619D01*
X69994380Y-36109000D01*
X70042000Y-36085190D01*
X70446761Y-36561380D02*
X70518190Y-36585190D01*
X70637238Y-36585190D01*
X70684857Y-36561380D01*
X70708666Y-36537571D01*
X70732476Y-36489952D01*
X70732476Y-36442333D01*
X70708666Y-36394714D01*
X70684857Y-36370904D01*
X70637238Y-36347095D01*
X70542000Y-36323285D01*
X70494380Y-36299476D01*
X70470571Y-36275666D01*
X70446761Y-36228047D01*
X70446761Y-36180428D01*
X70470571Y-36132809D01*
X70494380Y-36109000D01*
X70542000Y-36085190D01*
X70661047Y-36085190D01*
X70732476Y-36109000D01*
X70946761Y-36585190D02*
X70946761Y-36085190D01*
X66843547Y-35823190D02*
X66843547Y-35323190D01*
X67010214Y-35680333D01*
X67176880Y-35323190D01*
X67176880Y-35823190D01*
X67414976Y-35823190D02*
X67414976Y-35323190D01*
X67629261Y-35799380D02*
X67700690Y-35823190D01*
X67819738Y-35823190D01*
X67867357Y-35799380D01*
X67891166Y-35775571D01*
X67914976Y-35727952D01*
X67914976Y-35680333D01*
X67891166Y-35632714D01*
X67867357Y-35608904D01*
X67819738Y-35585095D01*
X67724500Y-35561285D01*
X67676880Y-35537476D01*
X67653071Y-35513666D01*
X67629261Y-35466047D01*
X67629261Y-35418428D01*
X67653071Y-35370809D01*
X67676880Y-35347000D01*
X67724500Y-35323190D01*
X67843547Y-35323190D01*
X67914976Y-35347000D01*
X68224500Y-35323190D02*
X68319738Y-35323190D01*
X68367357Y-35347000D01*
X68414976Y-35394619D01*
X68438785Y-35489857D01*
X68438785Y-35656523D01*
X68414976Y-35751761D01*
X68367357Y-35799380D01*
X68319738Y-35823190D01*
X68224500Y-35823190D01*
X68176880Y-35799380D01*
X68129261Y-35751761D01*
X68105452Y-35656523D01*
X68105452Y-35489857D01*
X68129261Y-35394619D01*
X68176880Y-35347000D01*
X68224500Y-35323190D01*
X69343547Y-35323190D02*
X69510214Y-35823190D01*
X69676880Y-35323190D01*
X70129261Y-35775571D02*
X70105452Y-35799380D01*
X70034023Y-35823190D01*
X69986404Y-35823190D01*
X69914976Y-35799380D01*
X69867357Y-35751761D01*
X69843547Y-35704142D01*
X69819738Y-35608904D01*
X69819738Y-35537476D01*
X69843547Y-35442238D01*
X69867357Y-35394619D01*
X69914976Y-35347000D01*
X69986404Y-35323190D01*
X70034023Y-35323190D01*
X70105452Y-35347000D01*
X70129261Y-35370809D01*
X70629261Y-35775571D02*
X70605452Y-35799380D01*
X70534023Y-35823190D01*
X70486404Y-35823190D01*
X70414976Y-35799380D01*
X70367357Y-35751761D01*
X70343547Y-35704142D01*
X70319738Y-35608904D01*
X70319738Y-35537476D01*
X70343547Y-35442238D01*
X70367357Y-35394619D01*
X70414976Y-35347000D01*
X70486404Y-35323190D01*
X70534023Y-35323190D01*
X70605452Y-35347000D01*
X70629261Y-35370809D01*
X65601190Y-40315952D02*
X65101190Y-40315952D01*
X65458333Y-40149285D01*
X65101190Y-39982619D01*
X65601190Y-39982619D01*
X65601190Y-39744523D02*
X65101190Y-39744523D01*
X65577380Y-39530238D02*
X65601190Y-39458809D01*
X65601190Y-39339761D01*
X65577380Y-39292142D01*
X65553571Y-39268333D01*
X65505952Y-39244523D01*
X65458333Y-39244523D01*
X65410714Y-39268333D01*
X65386904Y-39292142D01*
X65363095Y-39339761D01*
X65339285Y-39435000D01*
X65315476Y-39482619D01*
X65291666Y-39506428D01*
X65244047Y-39530238D01*
X65196428Y-39530238D01*
X65148809Y-39506428D01*
X65125000Y-39482619D01*
X65101190Y-39435000D01*
X65101190Y-39315952D01*
X65125000Y-39244523D01*
X65101190Y-38935000D02*
X65101190Y-38839761D01*
X65125000Y-38792142D01*
X65172619Y-38744523D01*
X65267857Y-38720714D01*
X65434523Y-38720714D01*
X65529761Y-38744523D01*
X65577380Y-38792142D01*
X65601190Y-38839761D01*
X65601190Y-38935000D01*
X65577380Y-38982619D01*
X65529761Y-39030238D01*
X65434523Y-39054047D01*
X65267857Y-39054047D01*
X65172619Y-39030238D01*
X65125000Y-38982619D01*
X65101190Y-38935000D01*
X65951190Y-40387380D02*
X66451190Y-40220714D01*
X65951190Y-40054047D01*
X66403571Y-39601666D02*
X66427380Y-39625476D01*
X66451190Y-39696904D01*
X66451190Y-39744523D01*
X66427380Y-39815952D01*
X66379761Y-39863571D01*
X66332142Y-39887380D01*
X66236904Y-39911190D01*
X66165476Y-39911190D01*
X66070238Y-39887380D01*
X66022619Y-39863571D01*
X65975000Y-39815952D01*
X65951190Y-39744523D01*
X65951190Y-39696904D01*
X65975000Y-39625476D01*
X65998809Y-39601666D01*
X66403571Y-39101666D02*
X66427380Y-39125476D01*
X66451190Y-39196904D01*
X66451190Y-39244523D01*
X66427380Y-39315952D01*
X66379761Y-39363571D01*
X66332142Y-39387380D01*
X66236904Y-39411190D01*
X66165476Y-39411190D01*
X66070238Y-39387380D01*
X66022619Y-39363571D01*
X65975000Y-39315952D01*
X65951190Y-39244523D01*
X65951190Y-39196904D01*
X65975000Y-39125476D01*
X65998809Y-39101666D01*
X67277380Y-40339761D02*
X67301190Y-40268333D01*
X67301190Y-40149285D01*
X67277380Y-40101666D01*
X67253571Y-40077857D01*
X67205952Y-40054047D01*
X67158333Y-40054047D01*
X67110714Y-40077857D01*
X67086904Y-40101666D01*
X67063095Y-40149285D01*
X67039285Y-40244523D01*
X67015476Y-40292142D01*
X66991666Y-40315952D01*
X66944047Y-40339761D01*
X66896428Y-40339761D01*
X66848809Y-40315952D01*
X66825000Y-40292142D01*
X66801190Y-40244523D01*
X66801190Y-40125476D01*
X66825000Y-40054047D01*
X67253571Y-39554047D02*
X67277380Y-39577857D01*
X67301190Y-39649285D01*
X67301190Y-39696904D01*
X67277380Y-39768333D01*
X67229761Y-39815952D01*
X67182142Y-39839761D01*
X67086904Y-39863571D01*
X67015476Y-39863571D01*
X66920238Y-39839761D01*
X66872619Y-39815952D01*
X66825000Y-39768333D01*
X66801190Y-39696904D01*
X66801190Y-39649285D01*
X66825000Y-39577857D01*
X66848809Y-39554047D01*
X67301190Y-39339761D02*
X66801190Y-39339761D01*
X67301190Y-39054047D02*
X67015476Y-39268333D01*
X66801190Y-39054047D02*
X67086904Y-39339761D01*
X68151190Y-40315952D02*
X67651190Y-40315952D01*
X68008333Y-40149285D01*
X67651190Y-39982619D01*
X68151190Y-39982619D01*
X67651190Y-39649285D02*
X67651190Y-39554047D01*
X67675000Y-39506428D01*
X67722619Y-39458809D01*
X67817857Y-39435000D01*
X67984523Y-39435000D01*
X68079761Y-39458809D01*
X68127380Y-39506428D01*
X68151190Y-39554047D01*
X68151190Y-39649285D01*
X68127380Y-39696904D01*
X68079761Y-39744523D01*
X67984523Y-39768333D01*
X67817857Y-39768333D01*
X67722619Y-39744523D01*
X67675000Y-39696904D01*
X67651190Y-39649285D01*
X68127380Y-39244523D02*
X68151190Y-39173095D01*
X68151190Y-39054047D01*
X68127380Y-39006428D01*
X68103571Y-38982619D01*
X68055952Y-38958809D01*
X68008333Y-38958809D01*
X67960714Y-38982619D01*
X67936904Y-39006428D01*
X67913095Y-39054047D01*
X67889285Y-39149285D01*
X67865476Y-39196904D01*
X67841666Y-39220714D01*
X67794047Y-39244523D01*
X67746428Y-39244523D01*
X67698809Y-39220714D01*
X67675000Y-39196904D01*
X67651190Y-39149285D01*
X67651190Y-39030238D01*
X67675000Y-38958809D01*
X68151190Y-38744523D02*
X67651190Y-38744523D01*
X69001190Y-40030238D02*
X68763095Y-40196904D01*
X69001190Y-40315952D02*
X68501190Y-40315952D01*
X68501190Y-40125476D01*
X68525000Y-40077857D01*
X68548809Y-40054047D01*
X68596428Y-40030238D01*
X68667857Y-40030238D01*
X68715476Y-40054047D01*
X68739285Y-40077857D01*
X68763095Y-40125476D01*
X68763095Y-40315952D01*
X68977380Y-39839761D02*
X69001190Y-39768333D01*
X69001190Y-39649285D01*
X68977380Y-39601666D01*
X68953571Y-39577857D01*
X68905952Y-39554047D01*
X68858333Y-39554047D01*
X68810714Y-39577857D01*
X68786904Y-39601666D01*
X68763095Y-39649285D01*
X68739285Y-39744523D01*
X68715476Y-39792142D01*
X68691666Y-39815952D01*
X68644047Y-39839761D01*
X68596428Y-39839761D01*
X68548809Y-39815952D01*
X68525000Y-39792142D01*
X68501190Y-39744523D01*
X68501190Y-39625476D01*
X68525000Y-39554047D01*
X68501190Y-39411190D02*
X68501190Y-39125476D01*
X69001190Y-39268333D02*
X68501190Y-39268333D01*
X69375000Y-40054047D02*
X69351190Y-40101666D01*
X69351190Y-40173095D01*
X69375000Y-40244523D01*
X69422619Y-40292142D01*
X69470238Y-40315952D01*
X69565476Y-40339761D01*
X69636904Y-40339761D01*
X69732142Y-40315952D01*
X69779761Y-40292142D01*
X69827380Y-40244523D01*
X69851190Y-40173095D01*
X69851190Y-40125476D01*
X69827380Y-40054047D01*
X69803571Y-40030238D01*
X69636904Y-40030238D01*
X69636904Y-40125476D01*
X69851190Y-39815952D02*
X69351190Y-39815952D01*
X69851190Y-39530238D01*
X69351190Y-39530238D01*
X69851190Y-39292142D02*
X69351190Y-39292142D01*
X69351190Y-39173095D01*
X69375000Y-39101666D01*
X69422619Y-39054047D01*
X69470238Y-39030238D01*
X69565476Y-39006428D01*
X69636904Y-39006428D01*
X69732142Y-39030238D01*
X69779761Y-39054047D01*
X69827380Y-39101666D01*
X69851190Y-39173095D01*
X69851190Y-39292142D01*
D11*
X64466666Y-41494047D02*
X64466666Y-40844047D01*
X64733333Y-40844047D01*
X64800000Y-40875000D01*
X64833333Y-40905952D01*
X64866666Y-40967857D01*
X64866666Y-41060714D01*
X64833333Y-41122619D01*
X64800000Y-41153571D01*
X64733333Y-41184523D01*
X64466666Y-41184523D01*
X65166666Y-41494047D02*
X65166666Y-41060714D01*
X65166666Y-40844047D02*
X65133333Y-40875000D01*
X65166666Y-40905952D01*
X65200000Y-40875000D01*
X65166666Y-40844047D01*
X65166666Y-40905952D01*
X65800000Y-41463095D02*
X65733333Y-41494047D01*
X65600000Y-41494047D01*
X65533333Y-41463095D01*
X65500000Y-41432142D01*
X65466666Y-41370238D01*
X65466666Y-41184523D01*
X65500000Y-41122619D01*
X65533333Y-41091666D01*
X65600000Y-41060714D01*
X65733333Y-41060714D01*
X65800000Y-41091666D01*
X66200000Y-41494047D02*
X66133333Y-41463095D01*
X66100000Y-41432142D01*
X66066666Y-41370238D01*
X66066666Y-41184523D01*
X66100000Y-41122619D01*
X66133333Y-41091666D01*
X66200000Y-41060714D01*
X66300000Y-41060714D01*
X66366666Y-41091666D01*
X66400000Y-41122619D01*
X66433333Y-41184523D01*
X66433333Y-41370238D01*
X66400000Y-41432142D01*
X66366666Y-41463095D01*
X66300000Y-41494047D01*
X66200000Y-41494047D01*
X66966666Y-41153571D02*
X67066666Y-41184523D01*
X67100000Y-41215476D01*
X67133333Y-41277380D01*
X67133333Y-41370238D01*
X67100000Y-41432142D01*
X67066666Y-41463095D01*
X67000000Y-41494047D01*
X66733333Y-41494047D01*
X66733333Y-40844047D01*
X66966666Y-40844047D01*
X67033333Y-40875000D01*
X67066666Y-40905952D01*
X67100000Y-40967857D01*
X67100000Y-41029761D01*
X67066666Y-41091666D01*
X67033333Y-41122619D01*
X66966666Y-41153571D01*
X66733333Y-41153571D01*
X67533333Y-41494047D02*
X67466666Y-41463095D01*
X67433333Y-41401190D01*
X67433333Y-40844047D01*
X68100000Y-41494047D02*
X68100000Y-41153571D01*
X68066666Y-41091666D01*
X68000000Y-41060714D01*
X67866666Y-41060714D01*
X67800000Y-41091666D01*
X68100000Y-41463095D02*
X68033333Y-41494047D01*
X67866666Y-41494047D01*
X67800000Y-41463095D01*
X67766666Y-41401190D01*
X67766666Y-41339285D01*
X67800000Y-41277380D01*
X67866666Y-41246428D01*
X68033333Y-41246428D01*
X68100000Y-41215476D01*
X68733333Y-41494047D02*
X68733333Y-40844047D01*
X68733333Y-41463095D02*
X68666666Y-41494047D01*
X68533333Y-41494047D01*
X68466666Y-41463095D01*
X68433333Y-41432142D01*
X68400000Y-41370238D01*
X68400000Y-41184523D01*
X68433333Y-41122619D01*
X68466666Y-41091666D01*
X68533333Y-41060714D01*
X68666666Y-41060714D01*
X68733333Y-41091666D01*
X69333333Y-41463095D02*
X69266666Y-41494047D01*
X69133333Y-41494047D01*
X69066666Y-41463095D01*
X69033333Y-41401190D01*
X69033333Y-41153571D01*
X69066666Y-41091666D01*
X69133333Y-41060714D01*
X69266666Y-41060714D01*
X69333333Y-41091666D01*
X69366666Y-41153571D01*
X69366666Y-41215476D01*
X69033333Y-41277380D01*
X70500000Y-40844047D02*
X70366666Y-40844047D01*
X70300000Y-40875000D01*
X70266666Y-40905952D01*
X70200000Y-40998809D01*
X70166666Y-41122619D01*
X70166666Y-41370238D01*
X70200000Y-41432142D01*
X70233333Y-41463095D01*
X70300000Y-41494047D01*
X70433333Y-41494047D01*
X70500000Y-41463095D01*
X70533333Y-41432142D01*
X70566666Y-41370238D01*
X70566666Y-41215476D01*
X70533333Y-41153571D01*
X70500000Y-41122619D01*
X70433333Y-41091666D01*
X70300000Y-41091666D01*
X70233333Y-41122619D01*
X70200000Y-41153571D01*
X70166666Y-41215476D01*
D12*
X58921809Y-30588380D02*
X58921809Y-29588380D01*
X59350380Y-30540761D02*
X59493238Y-30588380D01*
X59731333Y-30588380D01*
X59826571Y-30540761D01*
X59874190Y-30493142D01*
X59921809Y-30397904D01*
X59921809Y-30302666D01*
X59874190Y-30207428D01*
X59826571Y-30159809D01*
X59731333Y-30112190D01*
X59540857Y-30064571D01*
X59445619Y-30016952D01*
X59398000Y-29969333D01*
X59350380Y-29874095D01*
X59350380Y-29778857D01*
X59398000Y-29683619D01*
X59445619Y-29636000D01*
X59540857Y-29588380D01*
X59778952Y-29588380D01*
X59921809Y-29636000D01*
X60350380Y-30588380D02*
X60350380Y-29588380D01*
X60731333Y-29588380D01*
X60826571Y-29636000D01*
X60874190Y-29683619D01*
X60921809Y-29778857D01*
X60921809Y-29921714D01*
X60874190Y-30016952D01*
X60826571Y-30064571D01*
X60731333Y-30112190D01*
X60350380Y-30112190D01*
D13*
X56979904Y-42336000D02*
X56884666Y-42288380D01*
X56741809Y-42288380D01*
X56598952Y-42336000D01*
X56503714Y-42431238D01*
X56456095Y-42526476D01*
X56408476Y-42716952D01*
X56408476Y-42859809D01*
X56456095Y-43050285D01*
X56503714Y-43145523D01*
X56598952Y-43240761D01*
X56741809Y-43288380D01*
X56837047Y-43288380D01*
X56979904Y-43240761D01*
X57027523Y-43193142D01*
X57027523Y-42859809D01*
X56837047Y-42859809D01*
X57456095Y-43288380D02*
X57456095Y-42288380D01*
X58027523Y-43288380D01*
X58027523Y-42288380D01*
X58503714Y-43288380D02*
X58503714Y-42288380D01*
X58741809Y-42288380D01*
X58884666Y-42336000D01*
X58979904Y-42431238D01*
X59027523Y-42526476D01*
X59075142Y-42716952D01*
X59075142Y-42859809D01*
X59027523Y-43050285D01*
X58979904Y-43145523D01*
X58884666Y-43240761D01*
X58741809Y-43288380D01*
X58503714Y-43288380D01*
X56932285Y-39748380D02*
X56456095Y-39748380D01*
X56408476Y-40224571D01*
X56456095Y-40176952D01*
X56551333Y-40129333D01*
X56789428Y-40129333D01*
X56884666Y-40176952D01*
X56932285Y-40224571D01*
X56979904Y-40319809D01*
X56979904Y-40557904D01*
X56932285Y-40653142D01*
X56884666Y-40700761D01*
X56789428Y-40748380D01*
X56551333Y-40748380D01*
X56456095Y-40700761D01*
X56408476Y-40653142D01*
X57313238Y-40081714D02*
X57551333Y-40748380D01*
X57789428Y-40081714D01*
X56360857Y-37208380D02*
X56979904Y-37208380D01*
X56646571Y-37589333D01*
X56789428Y-37589333D01*
X56884666Y-37636952D01*
X56932285Y-37684571D01*
X56979904Y-37779809D01*
X56979904Y-38017904D01*
X56932285Y-38113142D01*
X56884666Y-38160761D01*
X56789428Y-38208380D01*
X56503714Y-38208380D01*
X56408476Y-38160761D01*
X56360857Y-38113142D01*
X57313238Y-37541714D02*
X57551333Y-38208380D01*
X57789428Y-37541714D01*
X58075142Y-37208380D02*
X58694190Y-37208380D01*
X58360857Y-37589333D01*
X58503714Y-37589333D01*
X58598952Y-37636952D01*
X58646571Y-37684571D01*
X58694190Y-37779809D01*
X58694190Y-38017904D01*
X58646571Y-38113142D01*
X58598952Y-38160761D01*
X58503714Y-38208380D01*
X58218000Y-38208380D01*
X58122761Y-38160761D01*
X58075142Y-38113142D01*
X57027523Y-35668380D02*
X56694190Y-35192190D01*
X56456095Y-35668380D02*
X56456095Y-34668380D01*
X56837047Y-34668380D01*
X56932285Y-34716000D01*
X56979904Y-34763619D01*
X57027523Y-34858857D01*
X57027523Y-35001714D01*
X56979904Y-35096952D01*
X56932285Y-35144571D01*
X56837047Y-35192190D01*
X56456095Y-35192190D01*
X57408476Y-35620761D02*
X57551333Y-35668380D01*
X57789428Y-35668380D01*
X57884666Y-35620761D01*
X57932285Y-35573142D01*
X57979904Y-35477904D01*
X57979904Y-35382666D01*
X57932285Y-35287428D01*
X57884666Y-35239809D01*
X57789428Y-35192190D01*
X57598952Y-35144571D01*
X57503714Y-35096952D01*
X57456095Y-35049333D01*
X57408476Y-34954095D01*
X57408476Y-34858857D01*
X57456095Y-34763619D01*
X57503714Y-34716000D01*
X57598952Y-34668380D01*
X57837047Y-34668380D01*
X57979904Y-34716000D01*
X58265619Y-34668380D02*
X58837047Y-34668380D01*
X58551333Y-35668380D02*
X58551333Y-34668380D01*
X100344571Y-43732952D02*
X100249333Y-43685333D01*
X100201714Y-43637714D01*
X100154095Y-43542476D01*
X100154095Y-43494857D01*
X100201714Y-43399619D01*
X100249333Y-43352000D01*
X100344571Y-43304380D01*
X100535047Y-43304380D01*
X100630285Y-43352000D01*
X100677904Y-43399619D01*
X100725523Y-43494857D01*
X100725523Y-43542476D01*
X100677904Y-43637714D01*
X100630285Y-43685333D01*
X100535047Y-43732952D01*
X100344571Y-43732952D01*
X100249333Y-43780571D01*
X100201714Y-43828190D01*
X100154095Y-43923428D01*
X100154095Y-44113904D01*
X100201714Y-44209142D01*
X100249333Y-44256761D01*
X100344571Y-44304380D01*
X100535047Y-44304380D01*
X100630285Y-44256761D01*
X100677904Y-44209142D01*
X100725523Y-44113904D01*
X100725523Y-43923428D01*
X100677904Y-43828190D01*
X100630285Y-43780571D01*
X100535047Y-43732952D01*
X100249333Y-41764380D02*
X100439809Y-41764380D01*
X100535047Y-41716761D01*
X100582666Y-41669142D01*
X100677904Y-41526285D01*
X100725523Y-41335809D01*
X100725523Y-40954857D01*
X100677904Y-40859619D01*
X100630285Y-40812000D01*
X100535047Y-40764380D01*
X100344571Y-40764380D01*
X100249333Y-40812000D01*
X100201714Y-40859619D01*
X100154095Y-40954857D01*
X100154095Y-41192952D01*
X100201714Y-41288190D01*
X100249333Y-41335809D01*
X100344571Y-41383428D01*
X100535047Y-41383428D01*
X100630285Y-41335809D01*
X100677904Y-41288190D01*
X100725523Y-41192952D01*
X99773142Y-39224380D02*
X99201714Y-39224380D01*
X99487428Y-39224380D02*
X99487428Y-38224380D01*
X99392190Y-38367238D01*
X99296952Y-38462476D01*
X99201714Y-38510095D01*
X100392190Y-38224380D02*
X100487428Y-38224380D01*
X100582666Y-38272000D01*
X100630285Y-38319619D01*
X100677904Y-38414857D01*
X100725523Y-38605333D01*
X100725523Y-38843428D01*
X100677904Y-39033904D01*
X100630285Y-39129142D01*
X100582666Y-39176761D01*
X100487428Y-39224380D01*
X100392190Y-39224380D01*
X100296952Y-39176761D01*
X100249333Y-39129142D01*
X100201714Y-39033904D01*
X100154095Y-38843428D01*
X100154095Y-38605333D01*
X100201714Y-38414857D01*
X100249333Y-38319619D01*
X100296952Y-38272000D01*
X100392190Y-38224380D01*
X99773142Y-36684380D02*
X99201714Y-36684380D01*
X99487428Y-36684380D02*
X99487428Y-35684380D01*
X99392190Y-35827238D01*
X99296952Y-35922476D01*
X99201714Y-35970095D01*
X100725523Y-36684380D02*
X100154095Y-36684380D01*
X100439809Y-36684380D02*
X100439809Y-35684380D01*
X100344571Y-35827238D01*
X100249333Y-35922476D01*
X100154095Y-35970095D01*
X99773142Y-34144380D02*
X99201714Y-34144380D01*
X99487428Y-34144380D02*
X99487428Y-33144380D01*
X99392190Y-33287238D01*
X99296952Y-33382476D01*
X99201714Y-33430095D01*
X100154095Y-33239619D02*
X100201714Y-33192000D01*
X100296952Y-33144380D01*
X100535047Y-33144380D01*
X100630285Y-33192000D01*
X100677904Y-33239619D01*
X100725523Y-33334857D01*
X100725523Y-33430095D01*
X100677904Y-33572952D01*
X100106476Y-34144380D01*
X100725523Y-34144380D01*
X99773142Y-31604380D02*
X99201714Y-31604380D01*
X99487428Y-31604380D02*
X99487428Y-30604380D01*
X99392190Y-30747238D01*
X99296952Y-30842476D01*
X99201714Y-30890095D01*
X100106476Y-30604380D02*
X100725523Y-30604380D01*
X100392190Y-30985333D01*
X100535047Y-30985333D01*
X100630285Y-31032952D01*
X100677904Y-31080571D01*
X100725523Y-31175809D01*
X100725523Y-31413904D01*
X100677904Y-31509142D01*
X100630285Y-31556761D01*
X100535047Y-31604380D01*
X100249333Y-31604380D01*
X100154095Y-31556761D01*
X100106476Y-31509142D01*
X98630285Y-28112000D02*
X98535047Y-28064380D01*
X98392190Y-28064380D01*
X98249333Y-28112000D01*
X98154095Y-28207238D01*
X98106476Y-28302476D01*
X98058857Y-28492952D01*
X98058857Y-28635809D01*
X98106476Y-28826285D01*
X98154095Y-28921523D01*
X98249333Y-29016761D01*
X98392190Y-29064380D01*
X98487428Y-29064380D01*
X98630285Y-29016761D01*
X98677904Y-28969142D01*
X98677904Y-28635809D01*
X98487428Y-28635809D01*
X99106476Y-29064380D02*
X99106476Y-28064380D01*
X99677904Y-29064380D01*
X99677904Y-28064380D01*
X100154095Y-29064380D02*
X100154095Y-28064380D01*
X100392190Y-28064380D01*
X100535047Y-28112000D01*
X100630285Y-28207238D01*
X100677904Y-28302476D01*
X100725523Y-28492952D01*
X100725523Y-28635809D01*
X100677904Y-28826285D01*
X100630285Y-28921523D01*
X100535047Y-29016761D01*
X100392190Y-29064380D01*
X100154095Y-29064380D01*
D12*
G04 #@! TO.C,J4*
X66629000Y-30136000D02*
X66629000Y-34962000D01*
X71201000Y-27342000D02*
X69169000Y-27342000D01*
X68915000Y-28612000D02*
G75*
G03X68915000Y-28612000I-1270000J0D01*
G01*
X71201000Y-27342000D02*
X71201000Y-34962000D01*
X71201000Y-34962000D02*
X66629000Y-34962000D01*
D11*
G04 #@! TO.C,C1*
X62909170Y-35681436D02*
G75*
G03X62910000Y-31989004I-979170J1846436D01*
G01*
X60950830Y-35681436D02*
G75*
G02X60950000Y-31989004I979170J1846436D01*
G01*
X60950830Y-35681436D02*
G75*
G03X62910000Y-35680996I979170J1846436D01*
G01*
X63980000Y-33835000D02*
X59880000Y-33835000D01*
X63980000Y-33875000D02*
X59880000Y-33875000D01*
X63979000Y-33915000D02*
X59881000Y-33915000D01*
X63977000Y-33955000D02*
X59883000Y-33955000D01*
X63974000Y-33995000D02*
X59886000Y-33995000D01*
X63971000Y-34035000D02*
X59889000Y-34035000D01*
X63967000Y-34075000D02*
X62710000Y-34075000D01*
X61150000Y-34075000D02*
X59893000Y-34075000D01*
X63962000Y-34115000D02*
X62710000Y-34115000D01*
X61150000Y-34115000D02*
X59898000Y-34115000D01*
X63956000Y-34155000D02*
X62710000Y-34155000D01*
X61150000Y-34155000D02*
X59904000Y-34155000D01*
X63949000Y-34195000D02*
X62710000Y-34195000D01*
X61150000Y-34195000D02*
X59911000Y-34195000D01*
X63942000Y-34235000D02*
X62710000Y-34235000D01*
X61150000Y-34235000D02*
X59918000Y-34235000D01*
X63934000Y-34275000D02*
X62710000Y-34275000D01*
X61150000Y-34275000D02*
X59926000Y-34275000D01*
X63925000Y-34315000D02*
X62710000Y-34315000D01*
X61150000Y-34315000D02*
X59935000Y-34315000D01*
X63915000Y-34355000D02*
X62710000Y-34355000D01*
X61150000Y-34355000D02*
X59945000Y-34355000D01*
X63904000Y-34395000D02*
X62710000Y-34395000D01*
X61150000Y-34395000D02*
X59956000Y-34395000D01*
X63893000Y-34435000D02*
X62710000Y-34435000D01*
X61150000Y-34435000D02*
X59967000Y-34435000D01*
X63880000Y-34475000D02*
X62710000Y-34475000D01*
X61150000Y-34475000D02*
X59980000Y-34475000D01*
X63867000Y-34515000D02*
X62710000Y-34515000D01*
X61150000Y-34515000D02*
X59993000Y-34515000D01*
X63853000Y-34556000D02*
X62710000Y-34556000D01*
X61150000Y-34556000D02*
X60007000Y-34556000D01*
X63837000Y-34596000D02*
X62710000Y-34596000D01*
X61150000Y-34596000D02*
X60023000Y-34596000D01*
X63821000Y-34636000D02*
X62710000Y-34636000D01*
X61150000Y-34636000D02*
X60039000Y-34636000D01*
X63804000Y-34676000D02*
X62710000Y-34676000D01*
X61150000Y-34676000D02*
X60056000Y-34676000D01*
X63786000Y-34716000D02*
X62710000Y-34716000D01*
X61150000Y-34716000D02*
X60074000Y-34716000D01*
X63767000Y-34756000D02*
X62710000Y-34756000D01*
X61150000Y-34756000D02*
X60093000Y-34756000D01*
X63747000Y-34796000D02*
X62710000Y-34796000D01*
X61150000Y-34796000D02*
X60113000Y-34796000D01*
X63726000Y-34836000D02*
X62710000Y-34836000D01*
X61150000Y-34836000D02*
X60134000Y-34836000D01*
X63703000Y-34876000D02*
X62710000Y-34876000D01*
X61150000Y-34876000D02*
X60157000Y-34876000D01*
X63680000Y-34916000D02*
X62710000Y-34916000D01*
X61150000Y-34916000D02*
X60180000Y-34916000D01*
X63655000Y-34956000D02*
X62710000Y-34956000D01*
X61150000Y-34956000D02*
X60205000Y-34956000D01*
X63629000Y-34996000D02*
X62710000Y-34996000D01*
X61150000Y-34996000D02*
X60231000Y-34996000D01*
X63602000Y-35036000D02*
X62710000Y-35036000D01*
X61150000Y-35036000D02*
X60258000Y-35036000D01*
X63573000Y-35076000D02*
X62710000Y-35076000D01*
X61150000Y-35076000D02*
X60287000Y-35076000D01*
X63543000Y-35116000D02*
X62710000Y-35116000D01*
X61150000Y-35116000D02*
X60317000Y-35116000D01*
X63511000Y-35156000D02*
X62710000Y-35156000D01*
X61150000Y-35156000D02*
X60349000Y-35156000D01*
X63477000Y-35196000D02*
X62710000Y-35196000D01*
X61150000Y-35196000D02*
X60383000Y-35196000D01*
X63442000Y-35236000D02*
X62710000Y-35236000D01*
X61150000Y-35236000D02*
X60418000Y-35236000D01*
X63405000Y-35276000D02*
X62710000Y-35276000D01*
X61150000Y-35276000D02*
X60455000Y-35276000D01*
X63366000Y-35316000D02*
X62710000Y-35316000D01*
X61150000Y-35316000D02*
X60494000Y-35316000D01*
X63325000Y-35356000D02*
X62710000Y-35356000D01*
X61150000Y-35356000D02*
X60535000Y-35356000D01*
X63281000Y-35396000D02*
X62710000Y-35396000D01*
X61150000Y-35396000D02*
X60579000Y-35396000D01*
X63235000Y-35436000D02*
X62710000Y-35436000D01*
X61150000Y-35436000D02*
X60625000Y-35436000D01*
X63186000Y-35476000D02*
X62710000Y-35476000D01*
X61150000Y-35476000D02*
X60674000Y-35476000D01*
X63134000Y-35516000D02*
X62710000Y-35516000D01*
X61150000Y-35516000D02*
X60726000Y-35516000D01*
X63078000Y-35556000D02*
X62710000Y-35556000D01*
X61150000Y-35556000D02*
X60782000Y-35556000D01*
X63018000Y-35596000D02*
X62710000Y-35596000D01*
X61150000Y-35596000D02*
X60842000Y-35596000D01*
X62953000Y-35636000D02*
X60907000Y-35636000D01*
X62882000Y-35676000D02*
X60978000Y-35676000D01*
X62804000Y-35716000D02*
X61056000Y-35716000D01*
X62716000Y-35756000D02*
X61144000Y-35756000D01*
X62616000Y-35796000D02*
X61244000Y-35796000D01*
X62497000Y-35836000D02*
X61363000Y-35836000D01*
X62345000Y-35876000D02*
X61515000Y-35876000D01*
X62095000Y-35916000D02*
X61765000Y-35916000D01*
X61930000Y-31135000D02*
X61930000Y-32035000D01*
X62380000Y-31585000D02*
X61480000Y-31585000D01*
G04 #@! TO.C,S8*
X91410000Y-27222000D02*
X89640000Y-27222000D01*
X89640000Y-27222000D02*
X89640000Y-37622000D01*
X89640000Y-37622000D02*
X95180000Y-37622000D01*
X95180000Y-37622000D02*
X95180000Y-27222000D01*
X95180000Y-27222000D02*
X93410000Y-27222000D01*
X87210000Y-27222000D02*
X87210000Y-37622000D01*
X87210000Y-37622000D02*
X97610000Y-37622000D01*
X97610000Y-37622000D02*
X97610000Y-27222000D01*
X97610000Y-27222000D02*
X87210000Y-27222000D01*
X93410000Y-27222000D02*
G75*
G02X91410000Y-27222000I-1000000J0D01*
G01*
G04 #@! TO.C,S14*
X78075000Y-27222000D02*
X76305000Y-27222000D01*
X76305000Y-27222000D02*
X76305000Y-45242000D01*
X76305000Y-45242000D02*
X81845000Y-45242000D01*
X81845000Y-45242000D02*
X81845000Y-27222000D01*
X81845000Y-27222000D02*
X80075000Y-27222000D01*
X73875000Y-27222000D02*
X73875000Y-45242000D01*
X73875000Y-45242000D02*
X84275000Y-45242000D01*
X84275000Y-45242000D02*
X84275000Y-27222000D01*
X84275000Y-27222000D02*
X73875000Y-27222000D01*
X80075000Y-27222000D02*
G75*
G02X78075000Y-27222000I-1000000J0D01*
G01*
G04 #@! TO.C,D1*
X95682000Y-40812000D02*
X95682000Y-41812000D01*
X95682000Y-41812000D02*
X97782000Y-41812000D01*
X95682000Y-40812000D02*
X97782000Y-40812000D01*
G04 #@! TO.C,D2*
X95682000Y-43352000D02*
X95682000Y-44352000D01*
X95682000Y-44352000D02*
X97782000Y-44352000D01*
X95682000Y-43352000D02*
X97782000Y-43352000D01*
G04 #@! TO.C,R1*
X93400000Y-38146000D02*
X94600000Y-38146000D01*
X94600000Y-39906000D02*
X93400000Y-39906000D01*
G04 #@! TO.C,R2*
X87807000Y-38146000D02*
X89007000Y-38146000D01*
X89007000Y-39906000D02*
X87807000Y-39906000D01*
G04 #@! TO.C,J5*
X62570000Y-45504000D02*
X63570000Y-45504000D01*
X62570000Y-45504000D02*
X62570000Y-44504000D01*
X71820000Y-42304000D02*
X67595000Y-42304000D01*
X71820000Y-43179000D02*
X71820000Y-42304000D01*
X72020000Y-43179000D02*
X71820000Y-43179000D01*
X72020000Y-43979000D02*
X72020000Y-43179000D01*
X71820000Y-43979000D02*
X72020000Y-43979000D01*
X71820000Y-44704000D02*
X71820000Y-43979000D01*
X67595000Y-44704000D02*
X71820000Y-44704000D01*
X63370000Y-42304000D02*
X67595000Y-42304000D01*
X63370000Y-43179000D02*
X63370000Y-42304000D01*
X63170000Y-43179000D02*
X63370000Y-43179000D01*
X63170000Y-43979000D02*
X63170000Y-43179000D01*
X63370000Y-43979000D02*
X63170000Y-43979000D01*
X63370000Y-44704000D02*
X63370000Y-43979000D01*
X67595000Y-44704000D02*
X63370000Y-44704000D01*
X72370000Y-41754000D02*
X62820000Y-41754000D01*
X72370000Y-45254000D02*
X72370000Y-41754000D01*
X62820000Y-45254000D02*
X72370000Y-45254000D01*
X62820000Y-41754000D02*
X62820000Y-45254000D01*
G04 #@! TO.C,JP1*
X62200000Y-40200000D02*
X62500000Y-39900000D01*
X62500000Y-40500000D02*
X62500000Y-39900000D01*
X62200000Y-40200000D02*
X62500000Y-40500000D01*
X61300000Y-41050000D02*
X60700000Y-41050000D01*
X62000000Y-37600000D02*
X62000000Y-40400000D01*
X60700000Y-36950000D02*
X61300000Y-36950000D01*
X60000000Y-40400000D02*
X60000000Y-37600000D01*
X60000000Y-37650000D02*
G75*
G02X60700000Y-36950000I700000J0D01*
G01*
X61300000Y-36950000D02*
G75*
G02X62000000Y-37650000I0J-700000D01*
G01*
X62000000Y-40350000D02*
G75*
G02X61300000Y-41050000I-700000J0D01*
G01*
X60700000Y-41050000D02*
G75*
G02X60000000Y-40350000I0J700000D01*
G01*
G04 #@! TO.C,C1*
D12*
X65339904Y-34708142D02*
X65339904Y-35165285D01*
X65339904Y-34936714D02*
X64539904Y-34936714D01*
X64654190Y-35012904D01*
X64730380Y-35089095D01*
X64768476Y-35165285D01*
X64539904Y-34212904D02*
X64539904Y-34136714D01*
X64578000Y-34060523D01*
X64616095Y-34022428D01*
X64692285Y-33984333D01*
X64844666Y-33946238D01*
X65035142Y-33946238D01*
X65187523Y-33984333D01*
X65263714Y-34022428D01*
X65301809Y-34060523D01*
X65339904Y-34136714D01*
X65339904Y-34212904D01*
X65301809Y-34289095D01*
X65263714Y-34327190D01*
X65187523Y-34365285D01*
X65035142Y-34403380D01*
X64844666Y-34403380D01*
X64692285Y-34365285D01*
X64616095Y-34327190D01*
X64578000Y-34289095D01*
X64539904Y-34212904D01*
X64806571Y-33260523D02*
X65339904Y-33260523D01*
X64806571Y-33603380D02*
X65225619Y-33603380D01*
X65301809Y-33565285D01*
X65339904Y-33489095D01*
X65339904Y-33374809D01*
X65301809Y-33298619D01*
X65263714Y-33260523D01*
X64920857Y-32612904D02*
X64920857Y-32879571D01*
X65339904Y-32879571D02*
X64539904Y-32879571D01*
X64539904Y-32498619D01*
G04 #@! TO.C,S8*
X86226666Y-34604380D02*
X86226666Y-34128190D01*
X86512380Y-34699619D02*
X85512380Y-34366285D01*
X86512380Y-34032952D01*
X85512380Y-33842476D02*
X85512380Y-33271047D01*
X86512380Y-33556761D02*
X85512380Y-33556761D01*
X85512380Y-33080571D02*
X85512380Y-32509142D01*
X86512380Y-32794857D02*
X85512380Y-32794857D01*
X86512380Y-32175809D02*
X85512380Y-32175809D01*
X86512380Y-31699619D02*
X85512380Y-31699619D01*
X86512380Y-31128190D01*
X85512380Y-31128190D01*
X86036190Y-30461523D02*
X86512380Y-30461523D01*
X85512380Y-30794857D02*
X86036190Y-30461523D01*
X85512380Y-30128190D01*
X86512380Y-29128190D02*
X85845714Y-28604380D01*
X85845714Y-29128190D02*
X86512380Y-28604380D01*
X85512380Y-27747238D02*
X85512380Y-28223428D01*
X85988571Y-28271047D01*
X85940952Y-28223428D01*
X85893333Y-28128190D01*
X85893333Y-27890095D01*
X85940952Y-27794857D01*
X85988571Y-27747238D01*
X86083809Y-27699619D01*
X86321904Y-27699619D01*
X86417142Y-27747238D01*
X86464761Y-27794857D01*
X86512380Y-27890095D01*
X86512380Y-28128190D01*
X86464761Y-28223428D01*
X86417142Y-28271047D01*
G04 #@! TO.C,S14*
X72891666Y-34604380D02*
X72891666Y-34128190D01*
X73177380Y-34699619D02*
X72177380Y-34366285D01*
X73177380Y-34032952D01*
X72177380Y-33842476D02*
X72177380Y-33271047D01*
X73177380Y-33556761D02*
X72177380Y-33556761D01*
X72177380Y-33080571D02*
X72177380Y-32509142D01*
X73177380Y-32794857D02*
X72177380Y-32794857D01*
X73177380Y-32175809D02*
X72177380Y-32175809D01*
X73177380Y-31699619D02*
X72177380Y-31699619D01*
X73177380Y-31128190D01*
X72177380Y-31128190D01*
X72701190Y-30461523D02*
X73177380Y-30461523D01*
X72177380Y-30794857D02*
X72701190Y-30461523D01*
X72177380Y-30128190D01*
X73177380Y-29128190D02*
X72510714Y-28604380D01*
X72510714Y-29128190D02*
X73177380Y-28604380D01*
X72510714Y-27794857D02*
X73177380Y-27794857D01*
X72129761Y-28032952D02*
X72844047Y-28271047D01*
X72844047Y-27652000D01*
G04 #@! TO.C,D1*
X96391523Y-42943904D02*
X96391523Y-42143904D01*
X96582000Y-42143904D01*
X96696285Y-42182000D01*
X96772476Y-42258190D01*
X96810571Y-42334380D01*
X96848666Y-42486761D01*
X96848666Y-42601047D01*
X96810571Y-42753428D01*
X96772476Y-42829619D01*
X96696285Y-42905809D01*
X96582000Y-42943904D01*
X96391523Y-42943904D01*
X97610571Y-42943904D02*
X97153428Y-42943904D01*
X97382000Y-42943904D02*
X97382000Y-42143904D01*
X97305809Y-42258190D01*
X97229619Y-42334380D01*
X97153428Y-42372476D01*
X88854380Y-41673904D02*
X88854380Y-40873904D01*
X88854380Y-41254857D02*
X89311523Y-41254857D01*
X89311523Y-41673904D02*
X89311523Y-40873904D01*
X89692476Y-41254857D02*
X89959142Y-41254857D01*
X90073428Y-41673904D02*
X89692476Y-41673904D01*
X89692476Y-40873904D01*
X90073428Y-40873904D01*
X90378190Y-41445333D02*
X90759142Y-41445333D01*
X90302000Y-41673904D02*
X90568666Y-40873904D01*
X90835333Y-41673904D01*
X91559142Y-41673904D02*
X91292476Y-41292952D01*
X91102000Y-41673904D02*
X91102000Y-40873904D01*
X91406761Y-40873904D01*
X91482952Y-40912000D01*
X91521047Y-40950095D01*
X91559142Y-41026285D01*
X91559142Y-41140571D01*
X91521047Y-41216761D01*
X91482952Y-41254857D01*
X91406761Y-41292952D01*
X91102000Y-41292952D01*
X91787714Y-40873904D02*
X92244857Y-40873904D01*
X92016285Y-41673904D02*
X92016285Y-40873904D01*
X92778190Y-41254857D02*
X92892476Y-41292952D01*
X92930571Y-41331047D01*
X92968666Y-41407238D01*
X92968666Y-41521523D01*
X92930571Y-41597714D01*
X92892476Y-41635809D01*
X92816285Y-41673904D01*
X92511523Y-41673904D01*
X92511523Y-40873904D01*
X92778190Y-40873904D01*
X92854380Y-40912000D01*
X92892476Y-40950095D01*
X92930571Y-41026285D01*
X92930571Y-41102476D01*
X92892476Y-41178666D01*
X92854380Y-41216761D01*
X92778190Y-41254857D01*
X92511523Y-41254857D01*
X93311523Y-41254857D02*
X93578190Y-41254857D01*
X93692476Y-41673904D02*
X93311523Y-41673904D01*
X93311523Y-40873904D01*
X93692476Y-40873904D01*
X93997238Y-41445333D02*
X94378190Y-41445333D01*
X93921047Y-41673904D02*
X94187714Y-40873904D01*
X94454380Y-41673904D01*
X94606761Y-40873904D02*
X95063904Y-40873904D01*
X94835333Y-41673904D02*
X94835333Y-40873904D01*
G04 #@! TO.C,D2*
X96391523Y-45610904D02*
X96391523Y-44810904D01*
X96582000Y-44810904D01*
X96696285Y-44849000D01*
X96772476Y-44925190D01*
X96810571Y-45001380D01*
X96848666Y-45153761D01*
X96848666Y-45268047D01*
X96810571Y-45420428D01*
X96772476Y-45496619D01*
X96696285Y-45572809D01*
X96582000Y-45610904D01*
X96391523Y-45610904D01*
X97153428Y-44887095D02*
X97191523Y-44849000D01*
X97267714Y-44810904D01*
X97458190Y-44810904D01*
X97534380Y-44849000D01*
X97572476Y-44887095D01*
X97610571Y-44963285D01*
X97610571Y-45039476D01*
X97572476Y-45153761D01*
X97115333Y-45610904D01*
X97610571Y-45610904D01*
X91381523Y-43794857D02*
X91648190Y-43794857D01*
X91762476Y-44213904D02*
X91381523Y-44213904D01*
X91381523Y-43413904D01*
X91762476Y-43413904D01*
X92562476Y-44213904D02*
X92295809Y-43832952D01*
X92105333Y-44213904D02*
X92105333Y-43413904D01*
X92410095Y-43413904D01*
X92486285Y-43452000D01*
X92524380Y-43490095D01*
X92562476Y-43566285D01*
X92562476Y-43680571D01*
X92524380Y-43756761D01*
X92486285Y-43794857D01*
X92410095Y-43832952D01*
X92105333Y-43832952D01*
X93362476Y-44213904D02*
X93095809Y-43832952D01*
X92905333Y-44213904D02*
X92905333Y-43413904D01*
X93210095Y-43413904D01*
X93286285Y-43452000D01*
X93324380Y-43490095D01*
X93362476Y-43566285D01*
X93362476Y-43680571D01*
X93324380Y-43756761D01*
X93286285Y-43794857D01*
X93210095Y-43832952D01*
X92905333Y-43832952D01*
X93857714Y-43413904D02*
X94010095Y-43413904D01*
X94086285Y-43452000D01*
X94162476Y-43528190D01*
X94200571Y-43680571D01*
X94200571Y-43947238D01*
X94162476Y-44099619D01*
X94086285Y-44175809D01*
X94010095Y-44213904D01*
X93857714Y-44213904D01*
X93781523Y-44175809D01*
X93705333Y-44099619D01*
X93667238Y-43947238D01*
X93667238Y-43680571D01*
X93705333Y-43528190D01*
X93781523Y-43452000D01*
X93857714Y-43413904D01*
X95000571Y-44213904D02*
X94733904Y-43832952D01*
X94543428Y-44213904D02*
X94543428Y-43413904D01*
X94848190Y-43413904D01*
X94924380Y-43452000D01*
X94962476Y-43490095D01*
X95000571Y-43566285D01*
X95000571Y-43680571D01*
X94962476Y-43756761D01*
X94924380Y-43794857D01*
X94848190Y-43832952D01*
X94543428Y-43832952D01*
G04 #@! TO.C,R1*
X91006666Y-39387904D02*
X90740000Y-39006952D01*
X90549523Y-39387904D02*
X90549523Y-38587904D01*
X90854285Y-38587904D01*
X90930476Y-38626000D01*
X90968571Y-38664095D01*
X91006666Y-38740285D01*
X91006666Y-38854571D01*
X90968571Y-38930761D01*
X90930476Y-38968857D01*
X90854285Y-39006952D01*
X90549523Y-39006952D01*
X91768571Y-39387904D02*
X91311428Y-39387904D01*
X91540000Y-39387904D02*
X91540000Y-38587904D01*
X91463809Y-38702190D01*
X91387619Y-38778380D01*
X91311428Y-38816476D01*
G04 #@! TO.C,R2*
X85413666Y-39387904D02*
X85147000Y-39006952D01*
X84956523Y-39387904D02*
X84956523Y-38587904D01*
X85261285Y-38587904D01*
X85337476Y-38626000D01*
X85375571Y-38664095D01*
X85413666Y-38740285D01*
X85413666Y-38854571D01*
X85375571Y-38930761D01*
X85337476Y-38968857D01*
X85261285Y-39006952D01*
X84956523Y-39006952D01*
X85718428Y-38664095D02*
X85756523Y-38626000D01*
X85832714Y-38587904D01*
X86023190Y-38587904D01*
X86099380Y-38626000D01*
X86137476Y-38664095D01*
X86175571Y-38740285D01*
X86175571Y-38816476D01*
X86137476Y-38930761D01*
X85680333Y-39387904D01*
X86175571Y-39387904D01*
G04 #@! TD*
M02*
