G04 #@! TF.GenerationSoftware,KiCad,Pcbnew,5.0.2-bee76a0~70~ubuntu18.04.1*
G04 #@! TF.CreationDate,2019-03-01T14:38:36+01:00*
G04 #@! TF.ProjectId,skewboards,736b6577-626f-4617-9264-732e6b696361,rev?*
G04 #@! TF.SameCoordinates,Original*
G04 #@! TF.FileFunction,Copper,L2,Bot*
G04 #@! TF.FilePolarity,Positive*
%FSLAX46Y46*%
G04 Gerber Fmt 4.6, Leading zero omitted, Abs format (unit mm)*
G04 Created by KiCad (PCBNEW 5.0.2-bee76a0~70~ubuntu18.04.1) date ven. 01 mars 2019 14:38:36 CET*
%MOMM*%
%LPD*%
G01*
G04 APERTURE LIST*
G04 #@! TA.AperFunction,ComponentPad*
%ADD10C,1.800000*%
G04 #@! TD*
G04 #@! TA.AperFunction,ComponentPad*
%ADD11R,1.800000X1.800000*%
G04 #@! TD*
G04 #@! TA.AperFunction,ComponentPad*
%ADD12R,1.200000X1.200000*%
G04 #@! TD*
G04 #@! TA.AperFunction,ComponentPad*
%ADD13C,1.200000*%
G04 #@! TD*
G04 #@! TA.AperFunction,ComponentPad*
%ADD14R,1.700000X1.700000*%
G04 #@! TD*
G04 #@! TA.AperFunction,ComponentPad*
%ADD15O,1.700000X1.700000*%
G04 #@! TD*
G04 #@! TA.AperFunction,ComponentPad*
%ADD16R,1.600000X1.600000*%
G04 #@! TD*
G04 #@! TA.AperFunction,ComponentPad*
%ADD17O,1.600000X1.600000*%
G04 #@! TD*
G04 #@! TA.AperFunction,ComponentPad*
%ADD18C,0.850000*%
G04 #@! TD*
G04 #@! TA.AperFunction,ComponentPad*
%ADD19R,0.850000X0.850000*%
G04 #@! TD*
G04 #@! TA.AperFunction,ViaPad*
%ADD20C,0.600000*%
G04 #@! TD*
G04 #@! TA.AperFunction,Conductor*
%ADD21C,0.300000*%
G04 #@! TD*
G04 APERTURE END LIST*
D10*
G04 #@! TO.P,J4,5*
G04 #@! TO.N,/RESET*
X67645000Y-33692000D03*
G04 #@! TO.P,J4,4*
G04 #@! TO.N,/MOSI*
X70185000Y-31152000D03*
D11*
G04 #@! TO.P,J4,6*
G04 #@! TO.N,GND*
X70185000Y-33692000D03*
D10*
G04 #@! TO.P,J4,2*
G04 #@! TO.N,VCC*
X70185000Y-28612000D03*
G04 #@! TO.P,J4,3*
G04 #@! TO.N,/SCK*
X67645000Y-31152000D03*
G04 #@! TO.P,J4,1*
G04 #@! TO.N,/MISO*
X67645000Y-28612000D03*
G04 #@! TD*
D12*
G04 #@! TO.P,C1,1*
G04 #@! TO.N,/RST*
X61930000Y-32835000D03*
D13*
G04 #@! TO.P,C1,2*
G04 #@! TO.N,GND*
X61930000Y-34835000D03*
G04 #@! TD*
D14*
G04 #@! TO.P,J1,1*
G04 #@! TO.N,GND*
X54564000Y-42836000D03*
D15*
G04 #@! TO.P,J1,2*
G04 #@! TO.N,Net-(J1-Pad2)*
X54564000Y-40296000D03*
G04 #@! TO.P,J1,3*
G04 #@! TO.N,Net-(J1-Pad3)*
X54564000Y-37756000D03*
G04 #@! TO.P,J1,4*
G04 #@! TO.N,/RST*
X54564000Y-35216000D03*
G04 #@! TD*
D14*
G04 #@! TO.P,J2,1*
G04 #@! TO.N,GND*
X102824000Y-28612000D03*
D15*
G04 #@! TO.P,J2,2*
G04 #@! TO.N,/SCK*
X102824000Y-31152000D03*
G04 #@! TO.P,J2,3*
G04 #@! TO.N,/MISO*
X102824000Y-33692000D03*
G04 #@! TO.P,J2,4*
G04 #@! TO.N,/MOSI*
X102824000Y-36232000D03*
G04 #@! TO.P,J2,5*
G04 #@! TO.N,/RESET*
X102824000Y-38772000D03*
G04 #@! TO.P,J2,6*
G04 #@! TO.N,/HEARTBEAT*
X102824000Y-41312000D03*
G04 #@! TO.P,J2,7*
G04 #@! TO.N,/ERROR*
X102824000Y-43852000D03*
G04 #@! TD*
D16*
G04 #@! TO.P,S8,1*
G04 #@! TO.N,/RESET*
X88600000Y-28612000D03*
D17*
G04 #@! TO.P,S8,5*
G04 #@! TO.N,/MOSI*
X96220000Y-36232000D03*
G04 #@! TO.P,S8,2*
G04 #@! TO.N,N/C*
X88600000Y-31152000D03*
G04 #@! TO.P,S8,6*
G04 #@! TO.N,/MISO*
X96220000Y-33692000D03*
G04 #@! TO.P,S8,3*
G04 #@! TO.N,N/C*
X88600000Y-33692000D03*
G04 #@! TO.P,S8,7*
G04 #@! TO.N,/SCK*
X96220000Y-31152000D03*
G04 #@! TO.P,S8,4*
G04 #@! TO.N,GND*
X88600000Y-36232000D03*
G04 #@! TO.P,S8,8*
G04 #@! TO.N,VCC*
X96220000Y-28612000D03*
G04 #@! TD*
D16*
G04 #@! TO.P,S14,1*
G04 #@! TO.N,VCC*
X75265000Y-28612000D03*
D17*
G04 #@! TO.P,S14,8*
G04 #@! TO.N,/MISO*
X82885000Y-43852000D03*
G04 #@! TO.P,S14,2*
G04 #@! TO.N,N/C*
X75265000Y-31152000D03*
G04 #@! TO.P,S14,9*
G04 #@! TO.N,/SCK*
X82885000Y-41312000D03*
G04 #@! TO.P,S14,3*
G04 #@! TO.N,N/C*
X75265000Y-33692000D03*
G04 #@! TO.P,S14,10*
X82885000Y-38772000D03*
G04 #@! TO.P,S14,4*
G04 #@! TO.N,/RESET*
X75265000Y-36232000D03*
G04 #@! TO.P,S14,11*
G04 #@! TO.N,N/C*
X82885000Y-36232000D03*
G04 #@! TO.P,S14,5*
X75265000Y-38772000D03*
G04 #@! TO.P,S14,12*
X82885000Y-33692000D03*
G04 #@! TO.P,S14,6*
X75265000Y-41312000D03*
G04 #@! TO.P,S14,13*
X82885000Y-31152000D03*
G04 #@! TO.P,S14,7*
G04 #@! TO.N,/MOSI*
X75265000Y-43852000D03*
G04 #@! TO.P,S14,14*
G04 #@! TO.N,GND*
X82885000Y-28612000D03*
G04 #@! TD*
D18*
G04 #@! TO.P,J5,6*
G04 #@! TO.N,GND*
X70720000Y-43979000D03*
G04 #@! TO.P,J5,5*
G04 #@! TO.N,/RESET*
X69470000Y-43979000D03*
G04 #@! TO.P,J5,4*
G04 #@! TO.N,/MOSI*
X68220000Y-43979000D03*
G04 #@! TO.P,J5,3*
G04 #@! TO.N,/SCK*
X66970000Y-43979000D03*
G04 #@! TO.P,J5,2*
G04 #@! TO.N,VCC*
X65720000Y-43979000D03*
D19*
G04 #@! TO.P,J5,1*
G04 #@! TO.N,/MISO*
X64470000Y-43979000D03*
G04 #@! TD*
D20*
G04 #@! TO.N,GND*
X87584000Y-41312000D03*
X93934000Y-36740000D03*
X60914000Y-42582000D03*
X70502500Y-38327500D03*
G04 #@! TD*
D21*
G04 #@! TO.N,GND*
X85806000Y-33438000D02*
X87800001Y-35432001D01*
X82885000Y-28612000D02*
X85806000Y-31533000D01*
X87800001Y-35432001D02*
X88600000Y-36232000D01*
X85806000Y-31533000D02*
X85806000Y-33438000D01*
X88600000Y-36232000D02*
X88600000Y-40296000D01*
X88600000Y-40296000D02*
X87584000Y-41312000D01*
X88600000Y-36232000D02*
X93426000Y-36232000D01*
X93426000Y-36232000D02*
X93934000Y-36740000D01*
X61930000Y-41566000D02*
X61213999Y-42282001D01*
X61930000Y-34835000D02*
X61930000Y-41566000D01*
X61213999Y-42282001D02*
X60914000Y-42582000D01*
X63073000Y-34835000D02*
X64631990Y-33276010D01*
X74104999Y-29862001D02*
X81634999Y-29862001D01*
X61930000Y-34835000D02*
X63073000Y-34835000D01*
X64631990Y-33276010D02*
X64631990Y-28958010D01*
X81634999Y-29862001D02*
X82885000Y-28612000D01*
X64631990Y-28958010D02*
X66328001Y-27261999D01*
X66328001Y-27261999D02*
X71504997Y-27261999D01*
X71504997Y-27261999D02*
X74104999Y-29862001D01*
X70185000Y-33692000D02*
X70185000Y-38010000D01*
X70202501Y-38027501D02*
X70502500Y-38327500D01*
X70185000Y-38010000D02*
X70202501Y-38027501D01*
G04 #@! TO.N,VCC*
X77615001Y-27361999D02*
X84555999Y-27361999D01*
X75265000Y-28612000D02*
X76365000Y-28612000D01*
X76365000Y-28612000D02*
X77615001Y-27361999D01*
X95420001Y-29411999D02*
X96220000Y-28612000D01*
X94930001Y-29901999D02*
X95420001Y-29411999D01*
X87095999Y-29901999D02*
X94930001Y-29901999D01*
X84555999Y-27361999D02*
X87095999Y-29901999D01*
G04 #@! TO.N,/SCK*
X66294999Y-43303999D02*
X66545001Y-43554001D01*
X66294999Y-32502001D02*
X66294999Y-43303999D01*
X66545001Y-43554001D02*
X66970000Y-43979000D01*
X67645000Y-31152000D02*
X66294999Y-32502001D01*
G04 #@! TO.N,/MISO*
X64470000Y-43254000D02*
X65232000Y-42492000D01*
X64470000Y-43979000D02*
X64470000Y-43254000D01*
X65232000Y-31025000D02*
X67645000Y-28612000D01*
X65232000Y-42492000D02*
X65232000Y-31025000D01*
X81634999Y-45102001D02*
X82085001Y-44651999D01*
X64868001Y-45102001D02*
X81634999Y-45102001D01*
X82085001Y-44651999D02*
X82885000Y-43852000D01*
X64470000Y-44704000D02*
X64868001Y-45102001D01*
X64470000Y-43979000D02*
X64470000Y-44704000D01*
G04 #@! TO.N,/MOSI*
X71535001Y-32502001D02*
X71535001Y-38564999D01*
X70185000Y-31152000D02*
X71535001Y-32502001D01*
X68220000Y-41880000D02*
X68220000Y-43979000D01*
X73576001Y-43052001D02*
X70312000Y-39788000D01*
X74465001Y-43052001D02*
X73576001Y-43052001D01*
X75265000Y-43852000D02*
X74465001Y-43052001D01*
X71535001Y-38564999D02*
X70312000Y-39788000D01*
X70312000Y-39788000D02*
X68220000Y-41880000D01*
X95420001Y-37031999D02*
X96220000Y-36232000D01*
X76515001Y-42601999D02*
X89850001Y-42601999D01*
X89850001Y-42601999D02*
X95420001Y-37031999D01*
X75265000Y-43852000D02*
X76515001Y-42601999D01*
G04 #@! TO.N,/RESET*
X89700000Y-28612000D02*
X88600000Y-28612000D01*
X91224000Y-27088000D02*
X89700000Y-28612000D01*
X102824000Y-38772000D02*
X99776000Y-35724000D01*
X97490000Y-27088000D02*
X91224000Y-27088000D01*
X99776000Y-29374000D02*
X97490000Y-27088000D01*
X99776000Y-35724000D02*
X99776000Y-29374000D01*
G04 #@! TD*
M02*
